<svg width="973" height="97" viewBox="0 0 973 97" fill="none" xmlns="http://www.w3.org/2000/svg">
<g filter="url(#filter0_d_3_2)">
<path d="M4 72V2H23.8V56.3H57.2V72H4ZM80.2352 29.1H112.735V43.9H80.2352V29.1ZM81.6352 56.7H118.235V72H62.0352V2H116.935V17.3H81.6352V56.7ZM117.823 72L148.723 2H168.223L199.223 72H178.623L154.423 11.7H162.223L138.023 72H117.823ZM134.723 58.4L139.823 43.8H174.023L179.123 58.4H134.723ZM201.836 72V2H233.836C240.236 2 245.736 3.03333 250.336 5.1C255.003 7.16666 258.603 10.1667 261.136 14.1C263.669 17.9667 264.936 22.5667 264.936 27.9C264.936 33.1667 263.669 37.7333 261.136 41.6C258.603 45.4 255.003 48.3333 250.336 50.4C245.736 52.4 240.236 53.4 233.836 53.4H212.836L221.636 45.1V72H201.836ZM245.136 72L227.736 46.5H248.836L266.336 72H245.136ZM221.636 47.2L212.836 38.1H232.636C236.769 38.1 239.836 37.2 241.836 35.4C243.903 33.6 244.936 31.1 244.936 27.9C244.936 24.6333 243.903 22.1 241.836 20.3C239.836 18.5 236.769 17.6 232.636 17.6H212.836L221.636 8.49999V47.2ZM272.859 72V2H289.159L327.759 48.6H320.059V2H339.459V72H323.159L284.559 25.4H292.259V72H272.859ZM368.127 72L399.027 2H418.527L449.527 72H428.927L404.727 11.7H412.527L388.327 72H368.127ZM385.027 58.4L390.127 43.8H424.327L429.427 58.4H385.027ZM452.141 72V2H487.941C497.141 2 504.007 3.7 508.541 7.1C513.074 10.4333 515.341 14.8333 515.341 20.3C515.341 23.9 514.374 27.0667 512.441 29.8C510.574 32.4667 507.907 34.6 504.441 36.2C501.041 37.7333 496.974 38.5 492.241 38.5L494.241 33.7C499.174 33.7 503.474 34.4667 507.141 36C510.807 37.4667 513.641 39.6333 515.641 42.5C517.707 45.3 518.741 48.7333 518.741 52.8C518.741 58.8667 516.274 63.6 511.341 67C506.474 70.3333 499.341 72 489.941 72H452.141ZM471.741 57.7H488.341C491.741 57.7 494.307 57.1333 496.041 56C497.841 54.8 498.741 53 498.741 50.6C498.741 48.2 497.841 46.4333 496.041 45.3C494.307 44.1 491.741 43.5 488.341 43.5H470.341V29.8H485.341C488.674 29.8 491.174 29.2333 492.841 28.1C494.507 26.9667 495.341 25.2667 495.341 23C495.341 20.7333 494.507 19.0667 492.841 18C491.174 16.8667 488.674 16.3 485.341 16.3H471.741V57.7ZM561.296 73.4C555.696 73.4 550.529 72.5 545.796 70.7C541.063 68.9 536.929 66.3667 533.396 63.1C529.929 59.7667 527.229 55.9 525.296 51.5C523.363 47.1 522.396 42.2667 522.396 37C522.396 31.7333 523.363 26.9 525.296 22.5C527.229 18.1 529.929 14.2667 533.396 11C536.929 7.66666 541.063 5.1 545.796 3.3C550.529 1.5 555.696 0.599995 561.296 0.599995C566.963 0.599995 572.129 1.5 576.796 3.3C581.529 5.1 585.629 7.66666 589.096 11C592.563 14.2667 595.263 18.1 597.196 22.5C599.196 26.9 600.196 31.7333 600.196 37C600.196 42.2667 599.196 47.1333 597.196 51.6C595.263 56 592.563 59.8333 589.096 63.1C585.629 66.3667 581.529 68.9 576.796 70.7C572.129 72.5 566.963 73.4 561.296 73.4ZM561.296 57C563.963 57 566.429 56.5333 568.696 55.6C571.029 54.6667 573.029 53.3333 574.696 51.6C576.429 49.8 577.763 47.6667 578.696 45.2C579.696 42.7333 580.196 40 580.196 37C580.196 33.9333 579.696 31.2 578.696 28.8C577.763 26.3333 576.429 24.2333 574.696 22.5C573.029 20.7 571.029 19.3333 568.696 18.4C566.429 17.4667 563.963 17 561.296 17C558.629 17 556.129 17.4667 553.796 18.4C551.529 19.3333 549.529 20.7 547.796 22.5C546.129 24.2333 544.796 26.3333 543.796 28.8C542.863 31.2 542.396 33.9333 542.396 37C542.396 40 542.863 42.7333 543.796 45.2C544.796 47.6667 546.129 49.8 547.796 51.6C549.529 53.3333 551.529 54.6667 553.796 55.6C556.129 56.5333 558.629 57 561.296 57ZM639.866 73.4C629.533 73.4 621.466 70.5667 615.666 64.9C609.866 59.2333 606.966 51.2 606.966 40.8V2H626.766V40.2C626.766 46.2 627.933 50.5 630.266 53.1C632.666 55.7 635.933 57 640.066 57C644.2 57 647.433 55.7 649.766 53.1C652.1 50.5 653.266 46.2 653.266 40.2V2H672.766V40.8C672.766 51.2 669.866 59.2333 664.066 64.9C658.266 70.5667 650.2 73.4 639.866 73.4ZM697.005 72V17.7H675.505V2H738.205V17.7H716.805V72H697.005ZM793.284 73.4C787.55 73.4 782.017 72.7 776.684 71.3C771.417 69.8333 767.117 67.9667 763.784 65.7L770.284 51.1C773.417 53.1 777.017 54.7667 781.084 56.1C785.217 57.3667 789.317 58 793.384 58C796.117 58 798.317 57.7667 799.984 57.3C801.65 56.7667 802.85 56.1 803.584 55.3C804.384 54.4333 804.784 53.4333 804.784 52.3C804.784 50.7 804.05 49.4333 802.584 48.5C801.117 47.5667 799.217 46.8 796.884 46.2C794.55 45.6 791.95 45 789.084 44.4C786.284 43.8 783.45 43.0333 780.584 42.1C777.784 41.1667 775.217 39.9667 772.884 38.5C770.55 36.9667 768.65 35 767.184 32.6C765.717 30.1333 764.984 27.0333 764.984 23.3C764.984 19.1 766.117 15.3 768.384 11.9C770.717 8.5 774.184 5.76667 778.784 3.7C783.384 1.63333 789.117 0.599995 795.984 0.599995C800.584 0.599995 805.084 1.13333 809.484 2.2C813.95 3.2 817.917 4.7 821.384 6.69999L815.284 21.4C811.95 19.6 808.65 18.2667 805.384 17.4C802.117 16.4667 798.95 16 795.884 16C793.15 16 790.95 16.3 789.284 16.9C787.617 17.4333 786.417 18.1667 785.684 19.1C784.95 20.0333 784.584 21.1 784.584 22.3C784.584 23.8333 785.284 25.0667 786.684 26C788.15 26.8667 790.05 27.6 792.384 28.2C794.784 28.7333 797.384 29.3 800.184 29.9C803.05 30.5 805.884 31.2667 808.684 32.2C811.55 33.0667 814.15 34.2667 816.484 35.8C818.817 37.2667 820.684 39.2333 822.084 41.7C823.55 44.1 824.284 47.1333 824.284 50.8C824.284 54.8667 823.117 58.6333 820.784 62.1C818.517 65.5 815.084 68.2333 810.484 70.3C805.95 72.3667 800.217 73.4 793.284 73.4ZM865.73 73.4C860.13 73.4 854.963 72.5 850.23 70.7C845.496 68.9 841.363 66.3667 837.83 63.1C834.363 59.7667 831.663 55.9 829.73 51.5C827.796 47.1 826.83 42.2667 826.83 37C826.83 31.7333 827.796 26.9 829.73 22.5C831.663 18.1 834.363 14.2667 837.83 11C841.363 7.66666 845.496 5.1 850.23 3.3C854.963 1.5 860.13 0.599995 865.73 0.599995C871.396 0.599995 876.563 1.5 881.23 3.3C885.963 5.1 890.063 7.63333 893.53 10.9C896.996 14.1667 899.696 18.0333 901.63 22.5C903.63 26.9 904.63 31.7333 904.63 37C904.63 42.2667 903.63 47.1333 901.63 51.6C899.696 56 896.996 59.8333 893.53 63.1C890.063 66.3667 885.963 68.9 881.23 70.7C876.563 72.5 871.396 73.4 865.73 73.4ZM888.63 88.9C885.63 88.9 882.83 88.5667 880.23 87.9C877.63 87.3 875.063 86.3 872.53 84.9C870.063 83.5 867.463 81.6 864.73 79.2C862.063 76.8 859.063 73.8333 855.73 70.3L876.43 65.1C878.096 67.5667 879.596 69.5 880.93 70.9C882.263 72.3 883.563 73.3 884.83 73.9C886.163 74.5 887.563 74.8 889.03 74.8C892.896 74.8 896.43 73.1667 899.63 69.9L908.23 80.1C903.363 85.9667 896.83 88.9 888.63 88.9ZM865.73 57C868.396 57 870.863 56.5333 873.13 55.6C875.463 54.6667 877.463 53.3333 879.13 51.6C880.863 49.8 882.196 47.6667 883.13 45.2C884.13 42.7333 884.63 40 884.63 37C884.63 33.9333 884.13 31.2 883.13 28.8C882.196 26.3333 880.863 24.2333 879.13 22.5C877.463 20.7 875.463 19.3333 873.13 18.4C870.863 17.4667 868.396 17 865.73 17C863.063 17 860.563 17.4667 858.23 18.4C855.963 19.3333 853.963 20.7 852.23 22.5C850.563 24.2333 849.23 26.3333 848.23 28.8C847.296 31.2 846.83 33.9333 846.83 37C846.83 40 847.296 42.7333 848.23 45.2C849.23 47.6667 850.563 49.8 852.23 51.6C853.963 53.3333 855.963 54.6667 858.23 55.6C860.563 56.5333 863.063 57 865.73 57ZM930.2 29.1H962.7V43.9H930.2V29.1ZM931.6 56.7H968.2V72H912V2H966.9V17.3H931.6V56.7Z" fill="url(#paint0_radial_3_2)"/>
</g>
<defs>
<filter id="filter0_d_3_2" x="0" y="0.600006" width="972.2" height="96.3" filterUnits="userSpaceOnUse" color-interpolation-filters="sRGB">
<feFlood flood-opacity="0" result="BackgroundImageFix"/>
<feColorMatrix in="SourceAlpha" type="matrix" values="0 0 0 0 0 0 0 0 0 0 0 0 0 0 0 0 0 0 127 0" result="hardAlpha"/>
<feOffset dy="4"/>
<feGaussianBlur stdDeviation="2"/>
<feComposite in2="hardAlpha" operator="out"/>
<feColorMatrix type="matrix" values="0 0 0 0 0 0 0 0 0 0 0 0 0 0 0 0 0 0 0.25 0"/>
<feBlend mode="normal" in2="BackgroundImageFix" result="effect1_dropShadow_3_2"/>
<feBlend mode="normal" in="SourceGraphic" in2="effect1_dropShadow_3_2" result="shape"/>
</filter>
<radialGradient id="paint0_radial_3_2" cx="0" cy="0" r="1" gradientUnits="userSpaceOnUse" gradientTransform="translate(436.952 -280.381) rotate(115.006) scale(582.174 4761.53)">
<stop offset="0.447917" stop-color="#FCFEFF"/>
<stop offset="0.963542" stop-color="#319EDC"/>
</radialGradient>
</defs>
</svg>
