<svg width="600" height="117" viewBox="0 0 731 117" fill="none" xmlns="http://www.w3.org/2000/svg">
<g filter="url(#filter0_d_13_385)">
<path d="M4.46 90L38.45 13H59.9L94 90H71.34L44.72 23.67H53.3L26.68 90H4.46ZM23.05 75.04L28.66 58.98H66.28L71.89 75.04H23.05ZM96.8746 90V13H136.255C146.375 13 153.928 14.87 158.915 18.61C163.901 22.2767 166.395 27.1167 166.395 33.13C166.395 37.09 165.331 40.5733 163.205 43.58C161.151 46.5133 158.218 48.86 154.405 50.62C150.665 52.3067 146.191 53.15 140.985 53.15L143.185 47.87C148.611 47.87 153.341 48.7133 157.375 50.4C161.408 52.0133 164.525 54.3967 166.725 57.55C168.998 60.63 170.135 64.4067 170.135 68.88C170.135 75.5533 167.421 80.76 161.995 84.5C156.641 88.1667 148.795 90 138.455 90H96.8746ZM118.435 74.27H136.695C140.435 74.27 143.258 73.6467 145.165 72.4C147.145 71.08 148.135 69.1 148.135 66.46C148.135 63.82 147.145 61.8767 145.165 60.63C143.258 59.31 140.435 58.65 136.695 58.65H116.895V43.58H133.395C137.061 43.58 139.811 42.9567 141.645 41.71C143.478 40.4633 144.395 38.5933 144.395 36.1C144.395 33.6067 143.478 31.7733 141.645 30.6C139.811 29.3533 137.061 28.73 133.395 28.73H118.435V74.27ZM216.946 91.54C210.786 91.54 205.102 90.55 199.896 88.57C194.689 86.59 190.142 83.8033 186.256 80.21C182.442 76.5433 179.472 72.29 177.346 67.45C175.219 62.61 174.156 57.2933 174.156 51.5C174.156 45.7067 175.219 40.39 177.346 35.55C179.472 30.71 182.442 26.4933 186.256 22.9C190.142 19.2333 194.689 16.41 199.896 14.43C205.102 12.45 210.786 11.46 216.946 11.46C223.179 11.46 228.862 12.45 233.996 14.43C239.202 16.41 243.712 19.2333 247.526 22.9C251.339 26.4933 254.309 30.71 256.436 35.55C258.636 40.39 259.736 45.7067 259.736 51.5C259.736 57.2933 258.636 62.6467 256.436 67.56C254.309 72.4 251.339 76.6167 247.526 80.21C243.712 83.8033 239.202 86.59 233.996 88.57C228.862 90.55 223.179 91.54 216.946 91.54ZM216.946 73.5C219.879 73.5 222.592 72.9867 225.086 71.96C227.652 70.9333 229.852 69.4667 231.686 67.56C233.592 65.58 235.059 63.2333 236.086 60.52C237.186 57.8067 237.736 54.8 237.736 51.5C237.736 48.1267 237.186 45.12 236.086 42.48C235.059 39.7667 233.592 37.4567 231.686 35.55C229.852 33.57 227.652 32.0667 225.086 31.04C222.592 30.0133 219.879 29.5 216.946 29.5C214.012 29.5 211.262 30.0133 208.696 31.04C206.202 32.0667 204.002 33.57 202.096 35.55C200.262 37.4567 198.796 39.7667 197.696 42.48C196.669 45.12 196.156 48.1267 196.156 51.5C196.156 54.8 196.669 57.8067 197.696 60.52C198.796 63.2333 200.262 65.58 202.096 67.56C204.002 69.4667 206.202 70.9333 208.696 71.96C211.262 72.9867 214.012 73.5 216.946 73.5ZM303.373 91.54C292.006 91.54 283.133 88.4233 276.753 82.19C270.373 75.9567 267.183 67.12 267.183 55.68V13H288.963V55.02C288.963 61.62 290.246 66.35 292.813 69.21C295.453 72.07 299.046 73.5 303.593 73.5C308.14 73.5 311.696 72.07 314.263 69.21C316.83 66.35 318.113 61.62 318.113 55.02V13H339.563V55.68C339.563 67.12 336.373 75.9567 329.993 82.19C323.613 88.4233 314.74 91.54 303.373 91.54ZM366.226 90V30.27H342.576V13H411.546V30.27H388.006V90H366.226ZM472.132 91.54C465.825 91.54 459.739 90.77 453.872 89.23C448.079 87.6167 443.349 85.5633 439.682 83.07L446.832 67.01C450.279 69.21 454.239 71.0433 458.712 72.51C463.259 73.9033 467.769 74.6 472.242 74.6C475.249 74.6 477.669 74.3433 479.502 73.83C481.335 73.2433 482.655 72.51 483.462 71.63C484.342 70.6767 484.782 69.5767 484.782 68.33C484.782 66.57 483.975 65.1767 482.362 64.15C480.749 63.1233 478.659 62.28 476.092 61.62C473.525 60.96 470.665 60.3 467.512 59.64C464.432 58.98 461.315 58.1367 458.162 57.11C455.082 56.0833 452.259 54.7633 449.692 53.15C447.125 51.4633 445.035 49.3 443.422 46.66C441.809 43.9467 441.002 40.5367 441.002 36.43C441.002 31.81 442.249 27.63 444.742 23.89C447.309 20.15 451.122 17.1433 456.182 14.87C461.242 12.5967 467.549 11.46 475.102 11.46C480.162 11.46 485.112 12.0467 489.952 13.22C494.865 14.32 499.229 15.97 503.042 18.17L496.332 34.34C492.665 32.36 489.035 30.8933 485.442 29.94C481.849 28.9133 478.365 28.4 474.992 28.4C471.985 28.4 469.565 28.73 467.732 29.39C465.899 29.9767 464.579 30.7833 463.772 31.81C462.965 32.8367 462.562 34.01 462.562 35.33C462.562 37.0167 463.332 38.3733 464.872 39.4C466.485 40.3533 468.575 41.16 471.142 41.82C473.782 42.4067 476.642 43.03 479.722 43.69C482.875 44.35 485.992 45.1933 489.072 46.22C492.225 47.1733 495.085 48.4933 497.652 50.18C500.219 51.7933 502.272 53.9567 503.812 56.67C505.425 59.31 506.232 62.6467 506.232 66.68C506.232 71.1533 504.949 75.2967 502.382 79.11C499.889 82.85 496.112 85.8567 491.052 88.13C486.065 90.4033 479.759 91.54 472.132 91.54ZM551.823 91.54C545.663 91.54 539.979 90.55 534.773 88.57C529.566 86.59 525.019 83.8033 521.133 80.21C517.319 76.5433 514.349 72.29 512.223 67.45C510.096 62.61 509.033 57.2933 509.033 51.5C509.033 45.7067 510.096 40.39 512.223 35.55C514.349 30.71 517.319 26.4933 521.133 22.9C525.019 19.2333 529.566 16.41 534.773 14.43C539.979 12.45 545.663 11.46 551.823 11.46C558.056 11.46 563.739 12.45 568.873 14.43C574.079 16.41 578.589 19.1967 582.403 22.79C586.216 26.3833 589.186 30.6367 591.313 35.55C593.513 40.39 594.613 45.7067 594.613 51.5C594.613 57.2933 593.513 62.6467 591.313 67.56C589.186 72.4 586.216 76.6167 582.403 80.21C578.589 83.8033 574.079 86.59 568.873 88.57C563.739 90.55 558.056 91.54 551.823 91.54ZM577.013 108.59C573.713 108.59 570.633 108.223 567.773 107.49C564.913 106.83 562.089 105.73 559.303 104.19C556.589 102.65 553.729 100.56 550.723 97.92C547.789 95.28 544.489 92.0167 540.823 88.13L563.593 82.41C565.426 85.1233 567.076 87.25 568.543 88.79C570.009 90.33 571.439 91.43 572.833 92.09C574.299 92.75 575.839 93.08 577.453 93.08C581.706 93.08 585.593 91.2833 589.113 87.69L598.573 98.91C593.219 105.363 586.033 108.59 577.013 108.59ZM551.823 73.5C554.756 73.5 557.469 72.9867 559.963 71.96C562.529 70.9333 564.729 69.4667 566.563 67.56C568.469 65.58 569.936 63.2333 570.963 60.52C572.063 57.8067 572.613 54.8 572.613 51.5C572.613 48.1267 572.063 45.12 570.963 42.48C569.936 39.7667 568.469 37.4567 566.563 35.55C564.729 33.57 562.529 32.0667 559.963 31.04C557.469 30.0133 554.756 29.5 551.823 29.5C548.889 29.5 546.139 30.0133 543.573 31.04C541.079 32.0667 538.879 33.57 536.973 35.55C535.139 37.4567 533.673 39.7667 532.573 42.48C531.546 45.12 531.033 48.1267 531.033 51.5C531.033 54.8 531.546 57.8067 532.573 60.52C533.673 63.2333 535.139 65.58 536.973 67.56C538.879 69.4667 541.079 70.9333 543.573 71.96C546.139 72.9867 548.889 73.5 551.823 73.5ZM622.74 42.81H658.49V59.09H622.74V42.81ZM624.28 73.17H664.54V90H602.72V13H663.11V29.83H624.28V73.17Z" fill="url(#paint0_radial_13_385)"/>
</g>
<defs>
<filter id="filter0_d_13_385" x="0.459961" y="11.46" width="668.08" height="105.13" filterUnits="userSpaceOnUse" color-interpolation-filters="sRGB">
<feFlood flood-opacity="0" result="BackgroundImageFix"/>
<feColorMatrix in="SourceAlpha" type="matrix" values="0 0 0 0 0 0 0 0 0 0 0 0 0 0 0 0 0 0 127 0" result="hardAlpha"/>
<feOffset dy="4"/>
<feGaussianBlur stdDeviation="2"/>
<feComposite in2="hardAlpha" operator="out"/>
<feColorMatrix type="matrix" values="0 0 0 0 0 0 0 0 0 0 0 0 0 0 0 0 0 0 0.25 0"/>
<feBlend mode="normal" in2="BackgroundImageFix" result="effect1_dropShadow_13_385"/>
<feBlend mode="normal" in="SourceGraphic" in2="effect1_dropShadow_13_385" result="shape"/>
</filter>
<radialGradient id="paint0_radial_13_385" cx="0" cy="0" r="1" gradientUnits="userSpaceOnUse" gradientTransform="translate(304.861 -296.5) rotate(106.091) scale(603.13 3429.23)">
<stop offset="0.447917" stop-color="#FCFEFF"/>
<stop offset="0.963542" stop-color="#319EDC"/>
</radialGradient>
</defs>
</svg>
