<svg width="387" height="360" viewBox="0 0 387 360" fill="none" xmlns="http://www.w3.org/2000/svg">
<circle cx="191.5" cy="252.5" r="46.5" stroke="url(#paint0_linear_4_126)" stroke-width="10"/>
<circle cx="191.5" cy="252.5" r="65.5" stroke="url(#paint1_linear_4_126)" stroke-width="10"/>
<rect x="34" y="236.544" width="9" height="22" transform="rotate(-56.9473 34 236.544)" fill="url(#paint2_linear_4_126)"/>
<rect x="352.348" y="282.456" width="9" height="22" transform="rotate(123.053 352.348 282.456)" fill="url(#paint3_linear_4_126)"/>
<rect width="9" height="22" transform="matrix(0.591727 0.806139 0.806139 -0.591727 34 282.018)" fill="url(#paint4_linear_4_126)"/>
<rect width="9" height="22" transform="matrix(-0.591727 -0.806139 -0.806139 0.591727 352.348 236.982)" fill="url(#paint5_linear_4_126)"/>
<rect width="9" height="36" transform="matrix(-4.37114e-08 1 1 4.37114e-08 16 254)" fill="url(#paint6_linear_4_126)"/>
<rect width="9" height="36" transform="matrix(1.31134e-07 -1 -1 -1.31134e-07 370.348 265)" fill="url(#paint7_linear_4_126)"/>
<rect width="9" height="23" transform="matrix(1.19249e-08 -1 -1 -1.19249e-08 39 238)" fill="url(#paint8_linear_4_126)"/>
<rect width="9" height="23" transform="matrix(-9.93477e-08 1 1 9.93477e-08 347.348 281)" fill="url(#paint9_linear_4_126)"/>
<rect width="9" height="23" transform="matrix(1.19249e-08 -1 -1 -1.19249e-08 39 289)" fill="url(#paint10_linear_4_126)"/>
<rect width="9" height="23" transform="matrix(-9.93477e-08 1 1 9.93477e-08 347.348 230)" fill="url(#paint11_linear_4_126)"/>
<path d="M206.302 251.397H178.698C176.167 251.397 174.125 249.355 174.125 246.823C174.125 244.292 176.167 242.25 178.698 242.25H206.302C208.833 242.25 210.875 244.292 210.875 246.823H217C217 240.943 212.182 236.125 206.302 236.125H195.603V230H189.478V236.125H178.698C172.818 236.125 168 240.943 168 246.823C168 252.703 172.818 257.522 178.698 257.522H206.302C208.833 257.522 210.875 259.563 210.875 262.095C210.875 264.627 208.833 266.668 206.302 266.668H178.698C176.167 266.668 174.125 264.627 174.125 262.095H168C168 267.975 172.818 272.793 178.698 272.793H189.397V279H195.522V272.875H206.22C212.1 272.875 216.918 268.057 216.918 262.177C216.918 256.297 212.182 251.397 206.302 251.397" fill="url(#paint12_linear_4_126)"/>
<circle cx="10" cy="234" r="8" transform="rotate(-180 10 234)" stroke="url(#paint13_linear_4_126)" stroke-width="4"/>
<circle cx="376.348" cy="285" r="8" stroke="url(#paint14_linear_4_126)" stroke-width="4"/>
<circle cx="10" cy="259" r="8" stroke="url(#paint15_linear_4_126)" stroke-width="4"/>
<circle cx="376.348" cy="260" r="8" transform="rotate(-180 376.348 260)" stroke="url(#paint16_linear_4_126)" stroke-width="4"/>
<circle cx="10" cy="285" r="8" transform="rotate(-180 10 285)" stroke="url(#paint17_linear_4_126)" stroke-width="4"/>
<circle cx="376.348" cy="234" r="8" stroke="url(#paint18_linear_4_126)" stroke-width="4"/>
<path d="M282.812 108V90C282.812 40.374 242.298 0 192.5 0C142.702 0 102.188 40.374 102.188 90V144H84.125C64.2021 144 48 160.146 48 180V324C48 343.854 64.2021 360 84.125 360H300.875C320.798 360 337 343.854 337 324V180C337 160.146 320.798 144 300.875 144H138.312V90C138.312 60.228 162.625 36 192.5 36C222.375 36 246.688 60.228 246.688 90V108H282.812ZM309.875 170L309.911 334H76.125V170H309.875Z" fill="url(#paint19_linear_4_126)"/>
<defs>
<linearGradient id="paint0_linear_4_126" x1="247.305" y1="279.403" x2="134.645" y2="279.47" gradientUnits="userSpaceOnUse">
<stop stop-color="#002CEE"/>
<stop offset="1" stop-color="#00C8E3"/>
</linearGradient>
<linearGradient id="paint1_linear_4_126" x1="267.893" y1="289.328" x2="113.67" y2="289.421" gradientUnits="userSpaceOnUse">
<stop stop-color="#002CEE"/>
<stop offset="1" stop-color="#00C8E3"/>
</linearGradient>
<linearGradient id="paint2_linear_4_126" x1="36.828" y1="236.307" x2="33.8256" y2="258.81" gradientUnits="userSpaceOnUse">
<stop stop-color="#002CEE"/>
<stop offset="1" stop-color="#00C8E3"/>
</linearGradient>
<linearGradient id="paint3_linear_4_126" x1="355.176" y1="282.22" x2="352.174" y2="304.723" gradientUnits="userSpaceOnUse">
<stop stop-color="#002CEE"/>
<stop offset="1" stop-color="#00C8E3"/>
</linearGradient>
<linearGradient id="paint4_linear_4_126" x1="2.82799" y1="-0.236481" x2="-0.174445" y2="22.2665" gradientUnits="userSpaceOnUse">
<stop stop-color="#002CEE"/>
<stop offset="1" stop-color="#00C8E3"/>
</linearGradient>
<linearGradient id="paint5_linear_4_126" x1="2.82799" y1="-0.236481" x2="-0.174445" y2="22.2665" gradientUnits="userSpaceOnUse">
<stop stop-color="#002CEE"/>
<stop offset="1" stop-color="#00C8E3"/>
</linearGradient>
<linearGradient id="paint6_linear_4_126" x1="2.82799" y1="-0.38697" x2="-4.98241" y2="35.3864" gradientUnits="userSpaceOnUse">
<stop stop-color="#002CEE"/>
<stop offset="1" stop-color="#00C8E3"/>
</linearGradient>
<linearGradient id="paint7_linear_4_126" x1="2.82799" y1="-0.38697" x2="-4.98241" y2="35.3864" gradientUnits="userSpaceOnUse">
<stop stop-color="#002CEE"/>
<stop offset="1" stop-color="#00C8E3"/>
</linearGradient>
<linearGradient id="paint8_linear_4_126" x1="2.82799" y1="-0.247231" x2="-0.44827" y2="23.2404" gradientUnits="userSpaceOnUse">
<stop stop-color="#002CEE"/>
<stop offset="1" stop-color="#00C8E3"/>
</linearGradient>
<linearGradient id="paint9_linear_4_126" x1="2.82799" y1="-0.247231" x2="-0.44827" y2="23.2404" gradientUnits="userSpaceOnUse">
<stop stop-color="#002CEE"/>
<stop offset="1" stop-color="#00C8E3"/>
</linearGradient>
<linearGradient id="paint10_linear_4_126" x1="2.82799" y1="-0.247231" x2="-0.44827" y2="23.2404" gradientUnits="userSpaceOnUse">
<stop stop-color="#002CEE"/>
<stop offset="1" stop-color="#00C8E3"/>
</linearGradient>
<linearGradient id="paint11_linear_4_126" x1="2.82799" y1="-0.247231" x2="-0.44827" y2="23.2404" gradientUnits="userSpaceOnUse">
<stop stop-color="#002CEE"/>
<stop offset="1" stop-color="#00C8E3"/>
</linearGradient>
<linearGradient id="paint12_linear_4_126" x1="219.048" y1="267.299" x2="165.453" y2="267.331" gradientUnits="userSpaceOnUse">
<stop stop-color="#002CEE"/>
<stop offset="1" stop-color="#00C8E3"/>
</linearGradient>
<linearGradient id="paint13_linear_4_126" x1="20.8359" y1="239.224" x2="-1.03977" y2="239.237" gradientUnits="userSpaceOnUse">
<stop stop-color="#002CEE"/>
<stop offset="1" stop-color="#00C8E3"/>
</linearGradient>
<linearGradient id="paint14_linear_4_126" x1="387.184" y1="290.224" x2="365.309" y2="290.237" gradientUnits="userSpaceOnUse">
<stop stop-color="#002CEE"/>
<stop offset="1" stop-color="#00C8E3"/>
</linearGradient>
<linearGradient id="paint15_linear_4_126" x1="20.8359" y1="264.224" x2="-1.03977" y2="264.237" gradientUnits="userSpaceOnUse">
<stop stop-color="#002CEE"/>
<stop offset="1" stop-color="#00C8E3"/>
</linearGradient>
<linearGradient id="paint16_linear_4_126" x1="387.184" y1="265.224" x2="365.309" y2="265.237" gradientUnits="userSpaceOnUse">
<stop stop-color="#002CEE"/>
<stop offset="1" stop-color="#00C8E3"/>
</linearGradient>
<linearGradient id="paint17_linear_4_126" x1="20.8359" y1="290.224" x2="-1.03977" y2="290.237" gradientUnits="userSpaceOnUse">
<stop stop-color="#002CEE"/>
<stop offset="1" stop-color="#00C8E3"/>
</linearGradient>
<linearGradient id="paint18_linear_4_126" x1="387.184" y1="239.224" x2="365.309" y2="239.237" gradientUnits="userSpaceOnUse">
<stop stop-color="#002CEE"/>
<stop offset="1" stop-color="#00C8E3"/>
</linearGradient>
<linearGradient id="paint19_linear_4_126" x1="349.079" y1="274.03" x2="32.9753" y2="274.182" gradientUnits="userSpaceOnUse">
<stop stop-color="#002CEE"/>
<stop offset="1" stop-color="#00C8E3"/>
</linearGradient>
</defs>
</svg>
