<svg width="548" height="89" viewBox="0 0 548 89" fill="none" xmlns="http://www.w3.org/2000/svg">
<g filter="url(#filter0_d_411_410)">
<path d="M46.491 80.54C40.4043 80.54 34.7576 79.5867 29.551 77.68C24.4176 75.7 19.9443 72.9133 16.131 69.32C12.391 65.7267 9.45764 61.51 7.33097 56.67C5.2043 51.7567 4.14097 46.3667 4.14097 40.5C4.14097 34.6333 5.2043 29.28 7.33097 24.44C9.45764 19.5267 12.391 15.2733 16.131 11.68C19.9443 8.08666 24.4176 5.33666 29.551 3.43C34.7576 1.45 40.4043 0.459995 46.491 0.459995C53.6043 0.459995 59.9476 1.70666 65.521 4.2C71.1676 6.69333 75.861 10.2867 79.601 14.98L65.741 27.52C63.2476 24.5867 60.4976 22.35 57.491 20.81C54.5576 19.27 51.2576 18.5 47.591 18.5C44.4376 18.5 41.541 19.0133 38.901 20.04C36.261 21.0667 33.9876 22.57 32.081 24.55C30.2476 26.4567 28.781 28.7667 27.681 31.48C26.6543 34.1933 26.141 37.2 26.141 40.5C26.141 43.8 26.6543 46.8067 27.681 49.52C28.781 52.2333 30.2476 54.58 32.081 56.56C33.9876 58.4667 36.261 59.9333 38.901 60.96C41.541 61.9867 44.4376 62.5 47.591 62.5C51.2576 62.5 54.5576 61.73 57.491 60.19C60.4976 58.65 63.2476 56.4133 65.741 53.48L79.601 66.02C75.861 70.64 71.1676 74.2333 65.521 76.8C59.9476 79.2933 53.6043 80.54 46.491 80.54ZM123.231 80.54C117.071 80.54 111.387 79.55 106.181 77.57C100.974 75.59 96.4272 72.8033 92.5406 69.21C88.7272 65.5433 85.7572 61.29 83.6306 56.45C81.5039 51.61 80.4406 46.2933 80.4406 40.5C80.4406 34.7067 81.5039 29.39 83.6306 24.55C85.7572 19.71 88.7272 15.4933 92.5406 11.9C96.4272 8.23333 100.974 5.41 106.181 3.43C111.387 1.45 117.071 0.459995 123.231 0.459995C129.464 0.459995 135.147 1.45 140.281 3.43C145.487 5.41 149.997 8.23333 153.811 11.9C157.624 15.4933 160.594 19.71 162.721 24.55C164.921 29.39 166.021 34.7067 166.021 40.5C166.021 46.2933 164.921 51.6467 162.721 56.56C160.594 61.4 157.624 65.6167 153.811 69.21C149.997 72.8033 145.487 75.59 140.281 77.57C135.147 79.55 129.464 80.54 123.231 80.54ZM123.231 62.5C126.164 62.5 128.877 61.9867 131.371 60.96C133.937 59.9333 136.137 58.4667 137.971 56.56C139.877 54.58 141.344 52.2333 142.371 49.52C143.471 46.8067 144.021 43.8 144.021 40.5C144.021 37.1267 143.471 34.12 142.371 31.48C141.344 28.7667 139.877 26.4567 137.971 24.55C136.137 22.57 133.937 21.0667 131.371 20.04C128.877 19.0133 126.164 18.5 123.231 18.5C120.297 18.5 117.547 19.0133 114.981 20.04C112.487 21.0667 110.287 22.57 108.381 24.55C106.547 26.4567 105.081 28.7667 103.981 31.48C102.954 34.12 102.441 37.1267 102.441 40.5C102.441 43.8 102.954 46.8067 103.981 49.52C105.081 52.2333 106.547 54.58 108.381 56.56C110.287 58.4667 112.487 59.9333 114.981 60.96C117.547 61.9867 120.297 62.5 123.231 62.5ZM174.128 79V1.99999H192.058L234.518 53.26H226.048V1.99999H247.388V79H229.458L186.998 27.74H195.468V79H174.128ZM275.841 79V19.27H252.191V1.99999H321.161V19.27H297.621V79H275.841ZM312.868 79L346.858 1.99999H368.308L402.408 79H379.748L353.128 12.67H361.708L335.088 79H312.868ZM331.458 64.04L337.068 47.98H374.688L380.298 64.04H331.458ZM442.598 80.54C436.512 80.54 430.865 79.5867 425.658 77.68C420.525 75.7 416.052 72.9133 412.238 69.32C408.498 65.7267 405.565 61.51 403.438 56.67C401.312 51.7567 400.248 46.3667 400.248 40.5C400.248 34.6333 401.312 29.28 403.438 24.44C405.565 19.5267 408.498 15.2733 412.238 11.68C416.052 8.08666 420.525 5.33666 425.658 3.43C430.865 1.45 436.512 0.459995 442.598 0.459995C449.712 0.459995 456.055 1.70666 461.628 4.2C467.275 6.69333 471.968 10.2867 475.708 14.98L461.848 27.52C459.355 24.5867 456.605 22.35 453.598 20.81C450.665 19.27 447.365 18.5 443.698 18.5C440.545 18.5 437.648 19.0133 435.008 20.04C432.368 21.0667 430.095 22.57 428.188 24.55C426.355 26.4567 424.888 28.7667 423.788 31.48C422.762 34.1933 422.248 37.2 422.248 40.5C422.248 43.8 422.762 46.8067 423.788 49.52C424.888 52.2333 426.355 54.58 428.188 56.56C430.095 58.4667 432.368 59.9333 435.008 60.96C437.648 61.9867 440.545 62.5 443.698 62.5C447.365 62.5 450.665 61.73 453.598 60.19C456.605 58.65 459.355 56.4133 461.848 53.48L475.708 66.02C471.968 70.64 467.275 74.2333 461.628 76.8C456.055 79.2933 449.712 80.54 442.598 80.54ZM497.865 79V19.27H474.215V1.99999H543.185V19.27H519.645V79H497.865Z" fill="url(#paint0_radial_411_410)"/>
</g>
<defs>
<filter id="filter0_d_411_410" x="0.141113" y="0.459961" width="547.043" height="88.0801" filterUnits="userSpaceOnUse" color-interpolation-filters="sRGB">
<feFlood flood-opacity="0" result="BackgroundImageFix"/>
<feColorMatrix in="SourceAlpha" type="matrix" values="0 0 0 0 0 0 0 0 0 0 0 0 0 0 0 0 0 0 127 0" result="hardAlpha"/>
<feOffset dy="4"/>
<feGaussianBlur stdDeviation="2"/>
<feComposite in2="hardAlpha" operator="out"/>
<feColorMatrix type="matrix" values="0 0 0 0 0 0 0 0 0 0 0 0 0 0 0 0 0 0 0.25 0"/>
<feBlend mode="normal" in2="BackgroundImageFix" result="effect1_dropShadow_411_410"/>
<feBlend mode="normal" in="SourceGraphic" in2="effect1_dropShadow_411_410" result="shape"/>
</filter>
<radialGradient id="paint0_radial_411_410" cx="0" cy="0" r="1" gradientUnits="userSpaceOnUse" gradientTransform="translate(299 -56.25) rotate(96.8655) scale(225.87 1947.67)">
<stop offset="0.447917" stop-color="#FCFEFF"/>
<stop offset="0.963542" stop-color="#319EDC"/>
</radialGradient>
</defs>
</svg>
