<svg width="97" height="16" viewBox="0 0 97 16" fill="none" xmlns="http://www.w3.org/2000/svg">
<path d="M0.09375 9.29688C0.130208 9.72917 0.244792 10.125 0.4375 10.4844C0.635417 10.8385 0.901042 11.1458 1.23438 11.4062C1.56771 11.6667 1.96354 11.8672 2.42188 12.0078C2.88021 12.1484 3.39062 12.2188 3.95312 12.2188C4.77604 12.2188 5.48438 12.0885 6.07812 11.8281C6.67708 11.5625 7.13802 11.1901 7.46094 10.7109C7.78906 10.2266 7.95312 9.66146 7.95312 9.01562C7.95312 8.5 7.85156 8.05469 7.64844 7.67969C7.44531 7.30469 7.13802 6.98958 6.72656 6.73438C6.3151 6.47917 5.79688 6.26823 5.17188 6.10156L3.35156 5.625C2.86719 5.5 2.49479 5.3099 2.23438 5.05469C1.97917 4.79948 1.85156 4.48438 1.85156 4.10938C1.85156 3.58333 2.05729 3.15625 2.46875 2.82812C2.88021 2.5 3.42188 2.33594 4.09375 2.33594C4.51042 2.33594 4.8776 2.40104 5.19531 2.53125C5.51302 2.65625 5.77344 2.83333 5.97656 3.0625C6.17969 3.29167 6.3125 3.5651 6.375 3.88281H7.82031C7.76823 3.34115 7.58073 2.85938 7.25781 2.4375C6.9401 2.01562 6.51302 1.6849 5.97656 1.44531C5.4401 1.20573 4.82031 1.08594 4.11719 1.08594C3.39844 1.08594 2.75781 1.21875 2.19531 1.48438C1.63802 1.74479 1.19792 2.10938 0.875 2.57812C0.552083 3.04167 0.390625 3.57292 0.390625 4.17188C0.390625 4.64583 0.489583 5.07031 0.6875 5.44531C0.885417 5.8151 1.17188 6.13021 1.54688 6.39062C1.92188 6.65104 2.3776 6.84896 2.91406 6.98438L4.76562 7.46875C5.35938 7.61979 5.79688 7.82812 6.07812 8.09375C6.35938 8.35417 6.5 8.69792 6.5 9.125C6.5 9.5 6.40365 9.82552 6.21094 10.1016C6.01823 10.3776 5.74219 10.5911 5.38281 10.7422C5.02865 10.8932 4.60156 10.9688 4.10156 10.9688C3.7526 10.9688 3.43229 10.9297 3.14062 10.8516C2.85417 10.7682 2.59896 10.6536 2.375 10.5078C2.15625 10.362 1.97656 10.1875 1.83594 9.98438C1.69531 9.78125 1.59896 9.55208 1.54688 9.29688H0.09375ZM18.6094 13.1875L17.1562 11.1641C17.6094 10.7474 17.9505 10.2214 18.1797 9.58594C18.4141 8.95052 18.5312 8.23438 18.5312 7.4375V5.89844C18.5312 4.91406 18.3594 4.0651 18.0156 3.35156C17.6719 2.63281 17.1771 2.08073 16.5312 1.69531C15.8906 1.3099 15.125 1.11719 14.2344 1.11719C13.349 1.11719 12.5833 1.3099 11.9375 1.69531C11.2969 2.08073 10.8021 2.63281 10.4531 3.35156C10.1094 4.0651 9.9375 4.91406 9.9375 5.89844V7.4375C9.9375 8.42188 10.1094 9.27344 10.4531 9.99219C10.8021 10.7057 11.2969 11.2552 11.9375 11.6406C12.5833 12.026 13.349 12.2188 14.2344 12.2188C14.5729 12.2188 14.8932 12.1901 15.1953 12.1328C15.5026 12.0755 15.7917 11.987 16.0625 11.8672L17.0234 13.1875H18.6094ZM11.3672 7.44531V5.89844C11.3672 5.16927 11.4818 4.54167 11.7109 4.01562C11.9453 3.48958 12.276 3.08854 12.7031 2.8125C13.1354 2.53125 13.6458 2.39062 14.2344 2.39062C14.8281 2.39062 15.3385 2.53125 15.7656 2.8125C16.1927 3.08854 16.5208 3.48958 16.75 4.01562C16.9844 4.54167 17.1016 5.16927 17.1016 5.89844V7.44531C17.1016 7.99219 17.0339 8.48438 16.8984 8.92188C16.7682 9.35417 16.5755 9.72396 16.3203 10.0312C16.1745 9.82812 16.026 9.625 15.875 9.42188C15.7292 9.21875 15.5833 9.01562 15.4375 8.8125H13.8594L15.2812 10.7812C15.125 10.8438 14.9583 10.8932 14.7812 10.9297C14.6042 10.9609 14.4193 10.9766 14.2266 10.9766C13.638 10.9714 13.1302 10.8281 12.7031 10.5469C12.276 10.2656 11.9453 9.86198 11.7109 9.33594C11.4818 8.8099 11.3672 8.17969 11.3672 7.44531ZM27.5234 10.7344H22.5078V7.17969H27.2422V5.94531H22.5078V2.60156H27.5234V1.33594H21.0781V12H27.5234V10.7344ZM41.875 12V1.33594H40.4375V5.85156H35.1562V1.33594H33.7188V12H35.1562V7.11719H40.4375V12H41.875ZM47.8984 3.64844C47.2161 3.64844 46.6068 3.79688 46.0703 4.09375C45.5339 4.39062 45.112 4.8099 44.8047 5.35156C44.4974 5.89323 44.3438 6.53646 44.3438 7.28125V8.49219C44.3438 9.26823 44.4948 9.92969 44.7969 10.4766C45.1042 11.0182 45.5234 11.4297 46.0547 11.7109C46.5911 11.9922 47.2057 12.1328 47.8984 12.1328C48.5807 12.1328 49.1875 11.9922 49.7188 11.7109C50.2552 11.4245 50.6771 11.0104 50.9844 10.4688C51.2917 9.92188 51.4453 9.26302 51.4453 8.49219V7.27344C51.4453 6.51302 51.2917 5.86198 50.9844 5.32031C50.6771 4.77344 50.2552 4.35938 49.7188 4.07812C49.1875 3.79167 48.5807 3.64844 47.8984 3.64844ZM47.9062 4.85156C48.3438 4.85156 48.7214 4.96094 49.0391 5.17969C49.3568 5.39323 49.599 5.6901 49.7656 6.07031C49.9375 6.45052 50.0234 6.89323 50.0234 7.39844V8.39062C50.0234 8.90104 49.9401 9.34635 49.7734 9.72656C49.612 10.1068 49.3724 10.4036 49.0547 10.6172C48.7422 10.8307 48.3594 10.9375 47.9062 10.9375C47.4479 10.9375 47.0573 10.8307 46.7344 10.6172C46.4167 10.4036 46.1745 10.1068 46.0078 9.72656C45.8411 9.34635 45.7578 8.90104 45.7578 8.39062V7.39844C45.7578 6.89844 45.8438 6.45833 46.0156 6.07812C46.1927 5.69271 46.4401 5.39323 46.7578 5.17969C47.0807 4.96094 47.4635 4.85156 47.9062 4.85156ZM53.8672 12H55.2812V0.773438H53.8672V12ZM60.8906 3.65625C60.2552 3.65625 59.6979 3.79948 59.2188 4.08594C58.7396 4.36719 58.3672 4.76562 58.1016 5.28125C57.8359 5.79167 57.7031 6.39583 57.7031 7.09375V8.6875C57.7031 9.38021 57.8333 9.98438 58.0938 10.5C58.3542 11.0156 58.7188 11.4141 59.1875 11.6953C59.6615 11.9766 60.2188 12.1172 60.8594 12.1172C61.1615 12.1172 61.4479 12.0807 61.7188 12.0078C61.9896 11.9401 62.2344 11.8438 62.4531 11.7188C62.6771 11.5938 62.8646 11.4453 63.0156 11.2734C63.1667 11.0964 63.2708 10.901 63.3281 10.6875H63.3984V12H64.7578V0.773438H63.3438V5H63.2734C63.1641 4.72396 62.9948 4.48438 62.7656 4.28125C62.5417 4.07812 62.2708 3.92448 61.9531 3.82031C61.6354 3.71094 61.2812 3.65625 60.8906 3.65625ZM61.1797 4.86719C61.5964 4.86719 61.9661 4.96354 62.2891 5.15625C62.6172 5.34375 62.875 5.60677 63.0625 5.94531C63.25 6.27865 63.3438 6.66146 63.3438 7.09375V8.51562C63.3438 9.00521 63.2552 9.42969 63.0781 9.78906C62.901 10.1432 62.6536 10.4193 62.3359 10.6172C62.0234 10.8099 61.651 10.9062 61.2188 10.9062C60.7865 10.9062 60.4141 10.8073 60.1016 10.6094C59.7891 10.4115 59.5469 10.125 59.375 9.75C59.2083 9.36979 59.125 8.91406 59.125 8.38281V7.38281C59.125 6.85677 59.2083 6.40625 59.375 6.03125C59.5417 5.65625 59.776 5.36979 60.0781 5.17188C60.3854 4.96875 60.7526 4.86719 61.1797 4.86719ZM67.7656 12H69.1797V3.78125H67.7656V12ZM67.4688 1.25C67.4688 1.53125 67.5625 1.76302 67.75 1.94531C67.9427 2.1276 68.1797 2.21875 68.4609 2.21875C68.7578 2.21875 69.0026 2.1276 69.1953 1.94531C69.388 1.76302 69.4844 1.53125 69.4844 1.25C69.4844 0.963542 69.388 0.729167 69.1953 0.546875C69.0026 0.364583 68.7578 0.273438 68.4609 0.273438C68.1797 0.273438 67.9427 0.364583 67.75 0.546875C67.5625 0.729167 67.4688 0.963542 67.4688 1.25ZM72.1641 12H73.5781V7.42188C73.5781 6.94792 73.6562 6.51823 73.8125 6.13281C73.9688 5.7474 74.2057 5.44271 74.5234 5.21875C74.8464 4.99479 75.2474 4.88281 75.7266 4.88281C76.0964 4.88281 76.4141 4.95573 76.6797 5.10156C76.9453 5.2474 77.1484 5.46615 77.2891 5.75781C77.4349 6.04427 77.5078 6.40365 77.5078 6.83594V12H78.9219V6.39062C78.9219 5.46875 78.6641 4.78125 78.1484 4.32812C77.6328 3.875 76.9609 3.64844 76.1328 3.64844C75.5599 3.64844 75.1042 3.73958 74.7656 3.92188C74.4271 4.10417 74.1719 4.32031 74 4.57031C73.8281 4.82031 73.7083 5.05469 73.6406 5.27344H73.5625V3.78125H72.1641V12ZM84.6328 13.8203C84.2734 13.8203 83.9609 13.7708 83.6953 13.6719C83.4349 13.5781 83.2266 13.4505 83.0703 13.2891C82.9141 13.1276 82.8177 12.9505 82.7812 12.7578H81.3438C81.3802 13.1536 81.5208 13.5208 81.7656 13.8594C82.0104 14.2031 82.3646 14.4792 82.8281 14.6875C83.2969 14.901 83.8828 15.0078 84.5859 15.0078C85.112 15.0078 85.5938 14.9453 86.0312 14.8203C86.474 14.6953 86.8568 14.5 87.1797 14.2344C87.5026 13.9688 87.7526 13.6302 87.9297 13.2188C88.112 12.8073 88.2031 12.3177 88.2031 11.75V3.78125H86.8516V5.02344H86.7812C86.6927 4.79427 86.5391 4.57552 86.3203 4.36719C86.1016 4.15885 85.8281 3.98958 85.5 3.85938C85.1771 3.72396 84.8099 3.65625 84.3984 3.65625C83.7943 3.65625 83.2474 3.79427 82.7578 4.07031C82.2682 4.34635 81.8802 4.74479 81.5938 5.26562C81.3073 5.78125 81.1641 6.40104 81.1641 7.125V8.39844C81.1641 9.11719 81.3073 9.73698 81.5938 10.2578C81.8802 10.7734 82.2682 11.1693 82.7578 11.4453C83.2526 11.7161 83.8021 11.8516 84.4062 11.8516C84.6927 11.8516 84.9583 11.8177 85.2031 11.75C85.4479 11.6823 85.6693 11.5911 85.8672 11.4766C86.0651 11.3568 86.2344 11.2214 86.375 11.0703C86.5208 10.9141 86.6328 10.7448 86.7109 10.5625H86.7891V11.7578C86.7891 12.4036 86.6094 12.9089 86.25 13.2734C85.8958 13.638 85.3568 13.8203 84.6328 13.8203ZM84.75 4.86719C85.1823 4.86719 85.5495 4.97656 85.8516 5.19531C86.1536 5.40885 86.3854 5.6901 86.5469 6.03906C86.7083 6.38802 86.7891 6.76302 86.7891 7.16406V8.40625C86.7891 8.79167 86.7109 9.15625 86.5547 9.5C86.4036 9.84375 86.1771 10.125 85.875 10.3438C85.5781 10.5573 85.2083 10.6641 84.7656 10.6641C84.3438 10.6641 83.9661 10.5599 83.6328 10.3516C83.3047 10.138 83.0469 9.84375 82.8594 9.46875C82.6771 9.08854 82.5859 8.65104 82.5859 8.15625V7.38281C82.5859 6.88281 82.6745 6.44531 82.8516 6.07031C83.0286 5.6901 83.2786 5.39583 83.6016 5.1875C83.9245 4.97396 84.3073 4.86719 84.75 4.86719ZM90.4609 6.14062C90.4609 6.67708 90.5859 7.09115 90.8359 7.38281C91.0859 7.67448 91.4193 7.89583 91.8359 8.04688C92.2578 8.19271 92.724 8.31771 93.2344 8.42188C93.6146 8.49479 93.9609 8.57552 94.2734 8.66406C94.5859 8.7474 94.8333 8.86979 95.0156 9.03125C95.1979 9.19271 95.2891 9.42708 95.2891 9.73438C95.2891 9.97396 95.2266 10.1901 95.1016 10.3828C94.9766 10.5755 94.7786 10.7318 94.5078 10.8516C94.2422 10.9714 93.8932 11.0312 93.4609 11.0312C93.0807 11.0312 92.7656 10.9844 92.5156 10.8906C92.2656 10.7917 92.0755 10.6536 91.9453 10.4766C91.8151 10.2995 91.7318 10.0885 91.6953 9.84375H90.3125C90.3125 10.3333 90.4427 10.75 90.7031 11.0938C90.9635 11.4323 91.3255 11.6901 91.7891 11.8672C92.2526 12.0443 92.7891 12.1328 93.3984 12.1328C94.0547 12.1328 94.6276 12.0339 95.1172 11.8359C95.612 11.638 95.9948 11.349 96.2656 10.9688C96.5417 10.5833 96.6797 10.1172 96.6797 9.57031C96.6797 9.03385 96.5521 8.61719 96.2969 8.32031C96.0417 8.01823 95.7005 7.79167 95.2734 7.64062C94.8516 7.48438 94.3828 7.36198 93.8672 7.27344C93.638 7.23177 93.4036 7.1875 93.1641 7.14062C92.9245 7.09375 92.7031 7.02865 92.5 6.94531C92.3021 6.85677 92.1406 6.73958 92.0156 6.59375C91.8906 6.44271 91.8281 6.24479 91.8281 6C91.8281 5.59896 91.9818 5.29167 92.2891 5.07812C92.6016 4.86458 92.9974 4.75781 93.4766 4.75781C93.8464 4.75781 94.151 4.81771 94.3906 4.9375C94.6354 5.05208 94.8203 5.20052 94.9453 5.38281C95.0703 5.5651 95.1406 5.7526 95.1562 5.94531H96.4688C96.4688 5.48177 96.3464 5.08073 96.1016 4.74219C95.8568 4.39844 95.513 4.13021 95.0703 3.9375C94.6328 3.74479 94.1172 3.64844 93.5234 3.64844C92.9922 3.64844 92.4922 3.73438 92.0234 3.90625C91.5599 4.07812 91.1823 4.34896 90.8906 4.71875C90.6042 5.08333 90.4609 5.55729 90.4609 6.14062Z" fill="#15CBFF"/>
</svg>
