<svg width="18" height="18" viewBox="0 0 18 18" fill="none" xmlns="http://www.w3.org/2000/svg">
<path d="M17.583 0L9.85938 5.76342L11.2956 2.36687L17.583 0Z" fill="#E17726"/>
<path d="M0.43527 0.00650024L6.70581 2.36699L8.06959 5.80807L0.43527 0.00650024ZM14.4745 12.2569L17.8882 12.3224L16.6952 16.4098L12.5297 15.2532L14.4745 12.2569ZM3.52536 12.2569L5.46296 15.2532L1.30447 16.4098L0.118652 12.3224L3.52536 12.2569Z" fill="#E27625"/>
<path d="M7.88414 4.93196L8.02364 9.47602L3.84912 9.2845L5.03656 7.47788L5.05161 7.4605L7.88414 4.93196ZM10.0725 4.88126L12.9483 7.46064L12.9632 7.47795L14.1506 9.28457L9.97699 9.47602L10.0725 4.88126ZM5.58521 12.2705L7.8646 14.0616L5.21677 15.3508L5.58521 12.2705ZM12.4151 12.2702L12.7759 15.3508L10.1354 14.0614L12.4151 12.2702Z" fill="#E27625"/>
<path d="M10.1934 13.8927L12.8728 15.2011L10.3804 16.3957L10.4063 15.6062L10.1934 13.8927ZM7.80508 13.8933L7.60054 15.5933L7.61734 16.3948L5.11914 15.2011L7.80508 13.8933Z" fill="#D5BFB2"/>
<path d="M7.03178 10.069L7.73195 11.553L5.34814 10.8487L7.03178 10.069ZM10.9682 10.0691L12.6598 10.8487L10.2682 11.5527L10.9682 10.0691Z" fill="#233447"/>
<path d="M5.7675 12.2554L5.38218 15.4492L3.31689 12.3253L5.7675 12.2554ZM12.2327 12.2555L14.6834 12.3253L12.6104 15.4493L12.2327 12.2555ZM14.211 9.104L12.4276 10.9371L11.0525 10.3034L10.3941 11.6991L9.96255 9.29893L14.211 9.104ZM3.78813 9.104L8.03746 9.29893L7.60582 11.6991L6.94734 10.3036L5.57955 10.9371L3.78813 9.104Z" fill="#CC6228"/>
<path d="M3.66846 8.7275L5.68629 10.7924L5.75618 12.831L3.66846 8.7275ZM14.3347 8.72382L12.2431 12.8346L12.3219 10.7924L14.3347 8.72382ZM7.93931 8.8533L8.02052 9.36881L8.22119 10.653L8.09217 14.5974L7.48221 11.4288L7.482 11.396L7.93931 8.8533ZM10.0607 8.84613L10.5192 11.396L10.519 11.4288L9.9075 14.6053L9.88331 13.8108L9.7879 10.6296L10.0607 8.84613Z" fill="#E27525"/>
<path d="M12.5004 10.7108L12.4321 12.482L10.3035 14.1545L9.87318 13.8479L10.3555 11.3424L12.5004 10.7108ZM5.50635 10.7108L7.64378 11.3424L8.12612 13.8479L7.69581 14.1545L5.5671 12.4819L5.50635 10.7108Z" fill="#F5841F"/>
<path d="M4.71191 14.81L7.43526 16.1113L7.42373 15.5556L7.65161 15.3539H10.347L10.5831 15.5549L10.5656 16.1102L13.2718 14.8133L11.9549 15.9106L10.3627 17.0135H7.62974L6.03857 15.9061L4.71191 14.81Z" fill="#C0AC9D"/>
<path d="M9.99888 13.7193L10.3839 13.9936L10.6095 15.8092L10.283 15.5311H7.71829L7.39795 15.8148L7.6162 13.9938L8.00137 13.7193H9.99888Z" fill="#161616"/>
<path d="M17.0729 0.15976L18 2.96471L17.421 5.80086L17.8333 6.12158L17.2754 6.55087L17.6947 6.87747L17.1394 7.38738L17.4803 7.63634L16.5757 8.70182L12.8653 7.6123L12.8332 7.59493L10.1594 5.32031L17.0729 0.15976ZM0.927141 0.15976L7.84069 5.32031L5.16684 7.59493L5.13471 7.6123L1.42432 8.70182L0.51968 7.63634L0.860273 7.38759L0.305367 6.87747L0.723867 6.55122L0.15757 6.12073L0.585422 5.7998L0 2.96485L0.927141 0.15976Z" fill="#763E1A"/>
<path d="M12.6839 7.37364L16.6153 8.52797L17.8925 12.4979H14.5228L12.2011 12.5274L13.8896 9.20827L12.6839 7.37364ZM5.31625 7.37364L4.11032 9.20827L5.79902 12.5274L3.47836 12.4979H0.114746L1.3848 8.52804L5.31625 7.37364ZM11.488 2.34775L10.3884 5.34288L10.155 9.38895L10.0657 10.6572L10.0586 13.8969H7.94144L7.93455 10.6633L7.84497 9.38789L7.61154 5.34288L6.51206 2.34775H11.488Z" fill="#F5841F"/>
</svg>
