<svg width="40" height="40" viewBox="0 0 40 40" fill="none" xmlns="http://www.w3.org/2000/svg">
<circle cx="20" cy="20" r="19" stroke="#319EDC" stroke-width="2"/>
<path d="M18.5402 29V15.55H22.4402V29H18.5402ZM20.4902 13.675C19.7736 13.675 19.1902 13.4667 18.7402 13.05C18.2902 12.6333 18.0652 12.1167 18.0652 11.5C18.0652 10.8833 18.2902 10.3667 18.7402 9.95C19.1902 9.53333 19.7736 9.325 20.4902 9.325C21.2069 9.325 21.7902 9.525 22.2402 9.925C22.6902 10.3083 22.9152 10.8083 22.9152 11.425C22.9152 12.075 22.6902 12.6167 22.2402 13.05C21.8069 13.4667 21.2236 13.675 20.4902 13.675Z" fill="#319EDC"/>
</svg>
