<svg width="58" height="58" viewBox="0 0 58 58" fill="none" xmlns="http://www.w3.org/2000/svg">
<path d="M29 37.7C33.8049 37.7 37.7 33.8049 37.7 29C37.7 24.1952 33.8049 20.3 29 20.3C24.1952 20.3 20.3 24.1952 20.3 29C20.3 33.8049 24.1952 37.7 29 37.7Z" fill="white"/>
<path d="M31.9 6.0001V0H26.1V6.0001C20.9965 6.65072 16.2535 8.97764 12.6156 12.6156C8.97764 16.2535 6.65072 20.9965 6.0001 26.1H0V31.9H6.0001C6.65025 37.0037 8.977 41.7469 12.615 45.385C16.2531 49.023 20.9963 51.3498 26.1 51.9999V58H31.9V51.9999C37.0037 51.3498 41.7469 49.023 45.385 45.385C49.023 41.7469 51.3498 37.0037 51.9999 31.9H58V26.1H51.9999C51.3493 20.9965 49.0224 16.2535 45.3844 12.6156C41.7465 8.97764 37.0035 6.65072 31.9 6.0001ZM29 46.4C19.4039 46.4 11.6 38.5961 11.6 29C11.6 19.4039 19.4039 11.6 29 11.6C38.5961 11.6 46.4 19.4039 46.4 29C46.4 38.5961 38.5961 46.4 29 46.4Z" fill="white"/>
</svg>
