<svg width="48" height="48" viewBox="0 0 48 48" fill="none" xmlns="http://www.w3.org/2000/svg">
<path d="M1.92 0H0V1.92H1.92V0Z" fill="black"/>
<path d="M3.84 0H1.92V1.92H3.84V0Z" fill="black"/>
<path d="M5.76 0H3.84V1.92H5.76V0Z" fill="black"/>
<path d="M7.68 0H5.76V1.92H7.68V0Z" fill="black"/>
<path d="M9.6 0H7.68V1.92H9.6V0Z" fill="black"/>
<path d="M11.52 0H9.6V1.92H11.52V0Z" fill="black"/>
<path d="M13.44 0H11.52V1.92H13.44V0Z" fill="black"/>
<path d="M17.28 0H15.36V1.92H17.28V0Z" fill="black"/>
<path d="M21.12 0H19.2V1.92H21.12V0Z" fill="black"/>
<path d="M24.96 0H23.04V1.92H24.96V0Z" fill="black"/>
<path d="M26.88 0H24.96V1.92H26.88V0Z" fill="black"/>
<path d="M28.8 0H26.88V1.92H28.8V0Z" fill="black"/>
<path d="M30.72 0H28.8V1.92H30.72V0Z" fill="black"/>
<path d="M32.64 0H30.72V1.92H32.64V0Z" fill="black"/>
<path d="M36.48 0H34.56V1.92H36.48V0Z" fill="black"/>
<path d="M38.4 0H36.48V1.92H38.4V0Z" fill="black"/>
<path d="M40.32 0H38.4V1.92H40.32V0Z" fill="black"/>
<path d="M42.24 0H40.32V1.92H42.24V0Z" fill="black"/>
<path d="M44.16 0H42.24V1.92H44.16V0Z" fill="black"/>
<path d="M46.08 0H44.16V1.92H46.08V0Z" fill="black"/>
<path d="M48 0H46.08V1.92H48V0Z" fill="black"/>
<path d="M1.92 1.92H0V3.84H1.92V1.92Z" fill="black"/>
<path d="M13.44 1.92H11.52L11.52 3.84H13.44V1.92Z" fill="black"/>
<path d="M21.12 1.92H19.2V3.84H21.12V1.92Z" fill="black"/>
<path d="M23.04 1.92H21.12V3.84H23.04V1.92Z" fill="black"/>
<path d="M36.48 1.92H34.56V3.84H36.48V1.92Z" fill="black"/>
<path d="M48 1.92H46.08V3.84H48V1.92Z" fill="black"/>
<path d="M1.92 3.84H0V5.76H1.92V3.84Z" fill="black"/>
<path d="M5.76 3.84H3.84V5.76H5.76V3.84Z" fill="black"/>
<path d="M7.68 3.84H5.76V5.76H7.68V3.84Z" fill="black"/>
<path d="M9.6 3.84H7.68V5.76H9.6V3.84Z" fill="black"/>
<path d="M13.44 3.84H11.52V5.76H13.44V3.84Z" fill="black"/>
<path d="M19.2 3.84H17.28V5.76H19.2V3.84Z" fill="black"/>
<path d="M24.96 3.84H23.04V5.76H24.96V3.84Z" fill="black"/>
<path d="M26.88 3.84H24.96V5.76H26.88V3.84Z" fill="black"/>
<path d="M36.48 3.84H34.56V5.76H36.48V3.84Z" fill="black"/>
<path d="M40.32 3.84H38.4V5.76H40.32V3.84Z" fill="black"/>
<path d="M42.24 3.84H40.32V5.76H42.24V3.84Z" fill="black"/>
<path d="M44.16 3.84H42.24V5.76H44.16V3.84Z" fill="black"/>
<path d="M48 3.84H46.08V5.76H48V3.84Z" fill="black"/>
<path d="M1.92 5.76H0V7.68H1.92V5.76Z" fill="black"/>
<path d="M5.76 5.76H3.84V7.68H5.76V5.76Z" fill="black"/>
<path d="M7.68 5.76H5.76V7.68H7.68V5.76Z" fill="black"/>
<path d="M9.6 5.76H7.68V7.68H9.6V5.76Z" fill="black"/>
<path d="M13.44 5.76H11.52V7.68H13.44V5.76Z" fill="black"/>
<path d="M19.2 5.76H17.28V7.68H19.2V5.76Z" fill="black"/>
<path d="M24.96 5.76H23.04V7.68H24.96V5.76Z" fill="black"/>
<path d="M28.8 5.76H26.88V7.68H28.8V5.76Z" fill="black"/>
<path d="M36.48 5.76H34.56V7.68H36.48V5.76Z" fill="black"/>
<path d="M40.32 5.76H38.4V7.68H40.32V5.76Z" fill="black"/>
<path d="M42.24 5.76H40.32V7.68H42.24V5.76Z" fill="black"/>
<path d="M44.16 5.76H42.24V7.68H44.16V5.76Z" fill="black"/>
<path d="M48 5.76H46.08V7.68H48V5.76Z" fill="black"/>
<path d="M1.92 7.68H0V9.6H1.92V7.68Z" fill="black"/>
<path d="M5.76 7.68H3.84V9.6H5.76V7.68Z" fill="black"/>
<path d="M7.68 7.68H5.76V9.6H7.68V7.68Z" fill="black"/>
<path d="M9.6 7.68H7.68V9.6H9.6V7.68Z" fill="black"/>
<path d="M13.44 7.68H11.52V9.6H13.44V7.68Z" fill="black"/>
<path d="M19.2 7.68H17.28V9.6H19.2V7.68Z" fill="black"/>
<path d="M30.72 7.68H28.8L28.8 9.6H30.72V7.68Z" fill="black"/>
<path d="M32.64 7.68H30.72V9.6H32.64V7.68Z" fill="black"/>
<path d="M36.48 7.68H34.56V9.6H36.48V7.68Z" fill="black"/>
<path d="M40.32 7.68H38.4V9.6H40.32V7.68Z" fill="black"/>
<path d="M42.24 7.68H40.32V9.6H42.24V7.68Z" fill="black"/>
<path d="M44.16 7.68H42.24V9.6H44.16V7.68Z" fill="black"/>
<path d="M48 7.68H46.08V9.6H48V7.68Z" fill="black"/>
<path d="M1.92 9.6H0V11.52H1.92V9.6Z" fill="black"/>
<path d="M13.44 9.6H11.52V11.52H13.44V9.6Z" fill="black"/>
<path d="M19.2 9.6H17.28V11.52H19.2V9.6Z" fill="black"/>
<path d="M21.12 9.6H19.2V11.52H21.12V9.6Z" fill="black"/>
<path d="M23.04 9.6H21.12V11.52H23.04V9.6Z" fill="black"/>
<path d="M26.88 9.6H24.96V11.52H26.88V9.6Z" fill="black"/>
<path d="M32.64 9.6H30.72V11.52H32.64V9.6Z" fill="black"/>
<path d="M36.48 9.6H34.56V11.52H36.48V9.6Z" fill="black"/>
<path d="M48 9.6H46.08V11.52H48V9.6Z" fill="black"/>
<path d="M1.92 11.52H0V13.44H1.92V11.52Z" fill="black"/>
<path d="M3.84 11.52L1.92 11.52V13.44H3.84V11.52Z" fill="black"/>
<path d="M5.76 11.52H3.84V13.44H5.76V11.52Z" fill="black"/>
<path d="M7.68 11.52H5.76V13.44H7.68V11.52Z" fill="black"/>
<path d="M9.6 11.52H7.68V13.44H9.6V11.52Z" fill="black"/>
<path d="M11.52 11.52L9.6 11.52V13.44H11.52L11.52 11.52Z" fill="black"/>
<path d="M13.44 11.52H11.52L11.52 13.44H13.44V11.52Z" fill="black"/>
<path d="M17.28 11.52L15.36 11.52V13.44H17.28V11.52Z" fill="black"/>
<path d="M21.12 11.52H19.2V13.44H21.12V11.52Z" fill="black"/>
<path d="M24.96 11.52H23.04V13.44H24.96V11.52Z" fill="black"/>
<path d="M28.8 11.52L26.88 11.52V13.44H28.8V11.52Z" fill="black"/>
<path d="M32.64 11.52H30.72V13.44H32.64V11.52Z" fill="black"/>
<path d="M36.48 11.52H34.56V13.44H36.48V11.52Z" fill="black"/>
<path d="M38.4 11.52L36.48 11.52V13.44H38.4V11.52Z" fill="black"/>
<path d="M40.32 11.52H38.4V13.44H40.32V11.52Z" fill="black"/>
<path d="M42.24 11.52H40.32V13.44H42.24V11.52Z" fill="black"/>
<path d="M44.16 11.52H42.24V13.44H44.16V11.52Z" fill="black"/>
<path d="M46.08 11.52L44.16 11.52V13.44H46.08V11.52Z" fill="black"/>
<path d="M48 11.52H46.08V13.44H48V11.52Z" fill="black"/>
<path d="M21.12 13.44H19.2V15.36H21.12V13.44Z" fill="black"/>
<path d="M24.96 13.44H23.04V15.36H24.96V13.44Z" fill="black"/>
<path d="M30.72 13.44H28.8L28.8 15.36H30.72V13.44Z" fill="black"/>
<path d="M32.64 13.44H30.72V15.36H32.64V13.44Z" fill="black"/>
<path d="M3.84 15.36H1.92V17.28H3.84V15.36Z" fill="black"/>
<path d="M5.76 15.36H3.84V17.28H5.76V15.36Z" fill="black"/>
<path d="M7.68 15.36H5.76V17.28H7.68V15.36Z" fill="black"/>
<path d="M13.44 15.36H11.52V17.28H13.44V15.36Z" fill="black"/>
<path d="M15.36 15.36H13.44V17.28H15.36V15.36Z" fill="black"/>
<path d="M17.28 15.36H15.36V17.28H17.28V15.36Z" fill="black"/>
<path d="M21.12 15.36H19.2V17.28H21.12V15.36Z" fill="black"/>
<path d="M23.04 15.36H21.12V17.28H23.04V15.36Z" fill="black"/>
<path d="M26.88 15.36H24.96V17.28H26.88V15.36Z" fill="black"/>
<path d="M28.8 15.36H26.88V17.28H28.8L28.8 15.36Z" fill="black"/>
<path d="M32.64 15.36H30.72V17.28H32.64V15.36Z" fill="black"/>
<path d="M34.56 15.36H32.64V17.28H34.56V15.36Z" fill="black"/>
<path d="M48 15.36H46.08V17.28H48V15.36Z" fill="black"/>
<path d="M3.84 17.28H1.92V19.2H3.84V17.28Z" fill="black"/>
<path d="M7.68 17.28H5.76V19.2H7.68V17.28Z" fill="black"/>
<path d="M17.28 17.28H15.36V19.2H17.28V17.28Z" fill="black"/>
<path d="M23.04 17.28H21.12V19.2H23.04V17.28Z" fill="black"/>
<path d="M26.88 17.28H24.96V19.2H26.88V17.28Z" fill="black"/>
<path d="M34.56 17.28H32.64V19.2H34.56V17.28Z" fill="black"/>
<path d="M46.08 17.28H44.16V19.2H46.08V17.28Z" fill="black"/>
<path d="M48 17.28H46.08V19.2H48V17.28Z" fill="black"/>
<path d="M1.92 19.2H0V21.12H1.92V19.2Z" fill="black"/>
<path d="M3.84 19.2H1.92V21.12H3.84V19.2Z" fill="black"/>
<path d="M5.76 19.2H3.84V21.12H5.76V19.2Z" fill="black"/>
<path d="M7.68 19.2H5.76V21.12H7.68V19.2Z" fill="black"/>
<path d="M13.44 19.2H11.52V21.12H13.44V19.2Z" fill="black"/>
<path d="M24.96 19.2H23.04V21.12H24.96V19.2Z" fill="black"/>
<path d="M26.88 19.2H24.96V21.12H26.88V19.2Z" fill="black"/>
<path d="M28.8 19.2H26.88V21.12H28.8V19.2Z" fill="black"/>
<path d="M32.64 19.2H30.72V21.12H32.64V19.2Z" fill="black"/>
<path d="M34.56 19.2H32.64V21.12H34.56V19.2Z" fill="black"/>
<path d="M36.48 19.2H34.56V21.12H36.48V19.2Z" fill="black"/>
<path d="M38.4 19.2H36.48V21.12H38.4V19.2Z" fill="black"/>
<path d="M40.32 19.2H38.4V21.12H40.32V19.2Z" fill="black"/>
<path d="M42.24 19.2H40.32V21.12H42.24V19.2Z" fill="black"/>
<path d="M46.08 19.2H44.16V21.12H46.08V19.2Z" fill="black"/>
<path d="M48 19.2H46.08V21.12H48V19.2Z" fill="black"/>
<path d="M1.92 21.12H0V23.04H1.92V21.12Z" fill="black"/>
<path d="M5.76 21.12H3.84V23.04H5.76V21.12Z" fill="black"/>
<path d="M7.68 21.12H5.76V23.04H7.68V21.12Z" fill="black"/>
<path d="M9.6 21.12H7.68V23.04H9.6V21.12Z" fill="black"/>
<path d="M17.28 21.12H15.36V23.04H17.28V21.12Z" fill="black"/>
<path d="M19.2 21.12H17.28V23.04H19.2V21.12Z" fill="black"/>
<path d="M38.4 21.12H36.48V23.04H38.4V21.12Z" fill="black"/>
<path d="M40.32 21.12H38.4V23.04H40.32V21.12Z" fill="black"/>
<path d="M48 21.12H46.08V23.04H48V21.12Z" fill="black"/>
<path d="M1.92 23.04H0V24.96H1.92V23.04Z" fill="black"/>
<path d="M3.84 23.04H1.92V24.96H3.84V23.04Z" fill="black"/>
<path d="M9.6 23.04H7.68V24.96H9.6V23.04Z" fill="black"/>
<path d="M11.52 23.04H9.6V24.96H11.52V23.04Z" fill="black"/>
<path d="M13.44 23.04H11.52V24.96H13.44V23.04Z" fill="black"/>
<path d="M19.2 23.04H17.28V24.96H19.2V23.04Z" fill="black"/>
<path d="M26.88 23.04H24.96V24.96H26.88V23.04Z" fill="black"/>
<path d="M30.72 23.04H28.8V24.96H30.72V23.04Z" fill="black"/>
<path d="M32.64 23.04H30.72V24.96H32.64V23.04Z" fill="black"/>
<path d="M36.48 23.04H34.56V24.96H36.48V23.04Z" fill="black"/>
<path d="M42.24 23.04H40.32V24.96H42.24V23.04Z" fill="black"/>
<path d="M46.08 23.04H44.16V24.96H46.08V23.04Z" fill="black"/>
<path d="M48 23.04H46.08V24.96H48V23.04Z" fill="black"/>
<path d="M1.92 24.96H0V26.88H1.92V24.96Z" fill="black"/>
<path d="M9.6 24.96H7.68V26.88H9.6V24.96Z" fill="black"/>
<path d="M11.52 24.96H9.6V26.88H11.52V24.96Z" fill="black"/>
<path d="M15.36 24.96H13.44V26.88H15.36V24.96Z" fill="black"/>
<path d="M24.96 24.96H23.04V26.88H24.96V24.96Z" fill="black"/>
<path d="M26.88 24.96H24.96V26.88H26.88V24.96Z" fill="black"/>
<path d="M28.8 24.96H26.88V26.88H28.8L28.8 24.96Z" fill="black"/>
<path d="M30.72 24.96H28.8L28.8 26.88H30.72V24.96Z" fill="black"/>
<path d="M36.48 24.96H34.56V26.88H36.48V24.96Z" fill="black"/>
<path d="M42.24 24.96H40.32V26.88H42.24V24.96Z" fill="black"/>
<path d="M44.16 24.96H42.24V26.88H44.16V24.96Z" fill="black"/>
<path d="M46.08 24.96H44.16V26.88H46.08V24.96Z" fill="black"/>
<path d="M48 24.96H46.08V26.88H48V24.96Z" fill="black"/>
<path d="M1.92 26.88H0V28.8H1.92V26.88Z" fill="black"/>
<path d="M5.76 26.88H3.84V28.8H5.76V26.88Z" fill="black"/>
<path d="M7.68 26.88H5.76V28.8H7.68V26.88Z" fill="black"/>
<path d="M9.6 26.88H7.68V28.8H9.6V26.88Z" fill="black"/>
<path d="M11.52 26.88H9.6V28.8H11.52V26.88Z" fill="black"/>
<path d="M13.44 26.88H11.52V28.8H13.44V26.88Z" fill="black"/>
<path d="M17.28 26.88H15.36V28.8H17.28V26.88Z" fill="black"/>
<path d="M19.2 26.88H17.28V28.8H19.2V26.88Z" fill="black"/>
<path d="M23.04 26.88H21.12V28.8H23.04V26.88Z" fill="black"/>
<path d="M24.96 26.88H23.04V28.8H24.96V26.88Z" fill="black"/>
<path d="M26.88 26.88H24.96V28.8H26.88V26.88Z" fill="black"/>
<path d="M28.8 26.88H26.88V28.8H28.8V26.88Z" fill="black"/>
<path d="M30.72 26.88H28.8V28.8H30.72V26.88Z" fill="black"/>
<path d="M32.64 26.88H30.72V28.8H32.64V26.88Z" fill="black"/>
<path d="M36.48 26.88H34.56V28.8H36.48V26.88Z" fill="black"/>
<path d="M38.4 26.88H36.48V28.8H38.4V26.88Z" fill="black"/>
<path d="M44.16 26.88H42.24V28.8H44.16V26.88Z" fill="black"/>
<path d="M1.92 28.8H0V30.72H1.92V28.8Z" fill="black"/>
<path d="M3.84 28.8H1.92V30.72H3.84V28.8Z" fill="black"/>
<path d="M7.68 28.8H5.76V30.72H7.68V28.8Z" fill="black"/>
<path d="M9.6 28.8H7.68V30.72H9.6V28.8Z" fill="black"/>
<path d="M17.28 28.8H15.36V30.72H17.28V28.8Z" fill="black"/>
<path d="M23.04 28.8H21.12V30.72H23.04V28.8Z" fill="black"/>
<path d="M28.8 28.8H26.88V30.72H28.8V28.8Z" fill="black"/>
<path d="M32.64 28.8H30.72V30.72H32.64V28.8Z" fill="black"/>
<path d="M36.48 28.8H34.56V30.72H36.48V28.8Z" fill="black"/>
<path d="M38.4 28.8H36.48V30.72H38.4V28.8Z" fill="black"/>
<path d="M48 28.8H46.08V30.72H48V28.8Z" fill="black"/>
<path d="M5.76 30.72H3.84V32.64H5.76V30.72Z" fill="black"/>
<path d="M11.52 30.72H9.6V32.64H11.52V30.72Z" fill="black"/>
<path d="M13.44 30.72H11.52V32.64H13.44V30.72Z" fill="black"/>
<path d="M23.04 30.72H21.12V32.64H23.04V30.72Z" fill="black"/>
<path d="M28.8 30.72H26.88V32.64H28.8V30.72Z" fill="black"/>
<path d="M30.72 30.72H28.8V32.64H30.72V30.72Z" fill="black"/>
<path d="M32.64 30.72H30.72V32.64H32.64V30.72Z" fill="black"/>
<path d="M34.56 30.72H32.64V32.64H34.56V30.72Z" fill="black"/>
<path d="M36.48 30.72H34.56V32.64H36.48V30.72Z" fill="black"/>
<path d="M38.4 30.72H36.48V32.64H38.4V30.72Z" fill="black"/>
<path d="M40.32 30.72H38.4V32.64H40.32V30.72Z" fill="black"/>
<path d="M44.16 30.72H42.24V32.64H44.16V30.72Z" fill="black"/>
<path d="M48 30.72H46.08V32.64H48V30.72Z" fill="black"/>
<path d="M17.28 32.64H15.36V34.56H17.28V32.64Z" fill="black"/>
<path d="M21.12 32.64H19.2V34.56H21.12V32.64Z" fill="black"/>
<path d="M28.8 32.64H26.88V34.56H28.8V32.64Z" fill="black"/>
<path d="M30.72 32.64H28.8V34.56H30.72V32.64Z" fill="black"/>
<path d="M32.64 32.64H30.72V34.56H32.64V32.64Z" fill="black"/>
<path d="M40.32 32.64H38.4V34.56H40.32V32.64Z" fill="black"/>
<path d="M42.24 32.64H40.32V34.56H42.24V32.64Z" fill="black"/>
<path d="M44.16 32.64H42.24V34.56H44.16V32.64Z" fill="black"/>
<path d="M1.92 34.56H0V36.48H1.92V34.56Z" fill="black"/>
<path d="M3.84 34.56H1.92V36.48H3.84V34.56Z" fill="black"/>
<path d="M5.76 34.56H3.84V36.48H5.76V34.56Z" fill="black"/>
<path d="M7.68 34.56H5.76V36.48H7.68V34.56Z" fill="black"/>
<path d="M9.6 34.56H7.68V36.48H9.6V34.56Z" fill="black"/>
<path d="M11.52 34.56H9.6V36.48H11.52V34.56Z" fill="black"/>
<path d="M13.44 34.56H11.52V36.48H13.44V34.56Z" fill="black"/>
<path d="M17.28 34.56H15.36V36.48H17.28V34.56Z" fill="black"/>
<path d="M19.2 34.56H17.28V36.48H19.2V34.56Z" fill="black"/>
<path d="M24.96 34.56H23.04V36.48H24.96V34.56Z" fill="black"/>
<path d="M26.88 34.56H24.96V36.48H26.88V34.56Z" fill="black"/>
<path d="M28.8 34.56H26.88V36.48H28.8V34.56Z" fill="black"/>
<path d="M32.64 34.56H30.72V36.48H32.64V34.56Z" fill="black"/>
<path d="M36.48 34.56H34.56V36.48H36.48V34.56Z" fill="black"/>
<path d="M40.32 34.56H38.4V36.48H40.32V34.56Z" fill="black"/>
<path d="M42.24 34.56H40.32V36.48H42.24V34.56Z" fill="black"/>
<path d="M44.16 34.56H42.24V36.48H44.16V34.56Z" fill="black"/>
<path d="M46.08 34.56H44.16V36.48H46.08V34.56Z" fill="black"/>
<path d="M1.92 36.48H0V38.4H1.92V36.48Z" fill="black"/>
<path d="M13.44 36.48H11.52L11.52 38.4H13.44V36.48Z" fill="black"/>
<path d="M19.2 36.48H17.28V38.4H19.2V36.48Z" fill="black"/>
<path d="M21.12 36.48H19.2V38.4H21.12V36.48Z" fill="black"/>
<path d="M24.96 36.48H23.04V38.4H24.96V36.48Z" fill="black"/>
<path d="M26.88 36.48H24.96V38.4H26.88V36.48Z" fill="black"/>
<path d="M30.72 36.48H28.8L28.8 38.4H30.72V36.48Z" fill="black"/>
<path d="M32.64 36.48H30.72V38.4H32.64V36.48Z" fill="black"/>
<path d="M40.32 36.48H38.4V38.4H40.32V36.48Z" fill="black"/>
<path d="M44.16 36.48H42.24V38.4H44.16V36.48Z" fill="black"/>
<path d="M1.92 38.4H0V40.32H1.92V38.4Z" fill="black"/>
<path d="M5.76 38.4H3.84V40.32H5.76V38.4Z" fill="black"/>
<path d="M7.68 38.4H5.76V40.32H7.68V38.4Z" fill="black"/>
<path d="M9.6 38.4H7.68V40.32H9.6V38.4Z" fill="black"/>
<path d="M13.44 38.4H11.52V40.32H13.44V38.4Z" fill="black"/>
<path d="M19.2 38.4H17.28V40.32H19.2V38.4Z" fill="black"/>
<path d="M23.04 38.4H21.12V40.32H23.04V38.4Z" fill="black"/>
<path d="M24.96 38.4H23.04V40.32H24.96V38.4Z" fill="black"/>
<path d="M30.72 38.4H28.8V40.32H30.72V38.4Z" fill="black"/>
<path d="M32.64 38.4H30.72V40.32H32.64V38.4Z" fill="black"/>
<path d="M34.56 38.4H32.64V40.32H34.56V38.4Z" fill="black"/>
<path d="M36.48 38.4H34.56V40.32H36.48V38.4Z" fill="black"/>
<path d="M38.4 38.4H36.48V40.32H38.4V38.4Z" fill="black"/>
<path d="M40.32 38.4H38.4V40.32H40.32V38.4Z" fill="black"/>
<path d="M42.24 38.4H40.32V40.32H42.24V38.4Z" fill="black"/>
<path d="M1.92 40.32H0V42.24H1.92V40.32Z" fill="black"/>
<path d="M5.76 40.32H3.84V42.24H5.76V40.32Z" fill="black"/>
<path d="M7.68 40.32H5.76V42.24H7.68V40.32Z" fill="black"/>
<path d="M9.6 40.32H7.68V42.24H9.6V40.32Z" fill="black"/>
<path d="M13.44 40.32H11.52V42.24H13.44V40.32Z" fill="black"/>
<path d="M17.28 40.32H15.36V42.24H17.28V40.32Z" fill="black"/>
<path d="M19.2 40.32H17.28V42.24H19.2V40.32Z" fill="black"/>
<path d="M24.96 40.32H23.04V42.24H24.96V40.32Z" fill="black"/>
<path d="M28.8 40.32H26.88V42.24H28.8L28.8 40.32Z" fill="black"/>
<path d="M30.72 40.32H28.8L28.8 42.24H30.72V40.32Z" fill="black"/>
<path d="M32.64 40.32H30.72V42.24H32.64V40.32Z" fill="black"/>
<path d="M36.48 40.32H34.56V42.24H36.48V40.32Z" fill="black"/>
<path d="M38.4 40.32H36.48V42.24H38.4V40.32Z" fill="black"/>
<path d="M40.32 40.32H38.4V42.24H40.32V40.32Z" fill="black"/>
<path d="M42.24 40.32H40.32V42.24H42.24V40.32Z" fill="black"/>
<path d="M46.08 40.32H44.16V42.24H46.08V40.32Z" fill="black"/>
<path d="M48 40.32H46.08V42.24H48V40.32Z" fill="black"/>
<path d="M1.92 42.24H0V44.16H1.92V42.24Z" fill="black"/>
<path d="M5.76 42.24H3.84V44.16H5.76V42.24Z" fill="black"/>
<path d="M7.68 42.24H5.76V44.16H7.68V42.24Z" fill="black"/>
<path d="M9.6 42.24H7.68V44.16H9.6V42.24Z" fill="black"/>
<path d="M13.44 42.24H11.52V44.16H13.44V42.24Z" fill="black"/>
<path d="M17.28 42.24H15.36V44.16H17.28V42.24Z" fill="black"/>
<path d="M19.2 42.24H17.28V44.16H19.2V42.24Z" fill="black"/>
<path d="M30.72 42.24H28.8L28.8 44.16H30.72V42.24Z" fill="black"/>
<path d="M34.56 42.24H32.64V44.16H34.56V42.24Z" fill="black"/>
<path d="M36.48 42.24H34.56V44.16H36.48V42.24Z" fill="black"/>
<path d="M44.16 42.24H42.24V44.16H44.16V42.24Z" fill="black"/>
<path d="M48 42.24H46.08V44.16H48V42.24Z" fill="black"/>
<path d="M1.92 44.16H0V46.08H1.92V44.16Z" fill="black"/>
<path d="M13.44 44.16H11.52V46.08H13.44V44.16Z" fill="black"/>
<path d="M17.28 44.16H15.36V46.08H17.28V44.16Z" fill="black"/>
<path d="M21.12 44.16H19.2V46.08H21.12V44.16Z" fill="black"/>
<path d="M23.04 44.16H21.12V46.08H23.04V44.16Z" fill="black"/>
<path d="M24.96 44.16H23.04V46.08H24.96V44.16Z" fill="black"/>
<path d="M26.88 44.16H24.96V46.08H26.88V44.16Z" fill="black"/>
<path d="M28.8 44.16H26.88V46.08H28.8L28.8 44.16Z" fill="black"/>
<path d="M30.72 44.16H28.8L28.8 46.08H30.72V44.16Z" fill="black"/>
<path d="M34.56 44.16H32.64V46.08H34.56V44.16Z" fill="black"/>
<path d="M40.32 44.16H38.4V46.08H40.32V44.16Z" fill="black"/>
<path d="M1.92 46.08H0V48H1.92V46.08Z" fill="black"/>
<path d="M3.84 46.08H1.92V48H3.84V46.08Z" fill="black"/>
<path d="M5.76 46.08H3.84V48H5.76V46.08Z" fill="black"/>
<path d="M7.68 46.08H5.76V48H7.68V46.08Z" fill="black"/>
<path d="M9.6 46.08H7.68V48H9.6V46.08Z" fill="black"/>
<path d="M11.52 46.08H9.6V48H11.52L11.52 46.08Z" fill="black"/>
<path d="M13.44 46.08H11.52L11.52 48H13.44V46.08Z" fill="black"/>
<path d="M19.2 46.08H17.28V48H19.2V46.08Z" fill="black"/>
<path d="M21.12 46.08H19.2V48H21.12V46.08Z" fill="black"/>
<path d="M23.04 46.08H21.12V48H23.04V46.08Z" fill="black"/>
<path d="M24.96 46.08H23.04V48H24.96V46.08Z" fill="black"/>
<path d="M26.88 46.08H24.96V48H26.88V46.08Z" fill="black"/>
<path d="M28.8 46.08H26.88V48H28.8V46.08Z" fill="black"/>
<path d="M32.64 46.08H30.72V48H32.64V46.08Z" fill="black"/>
<path d="M34.56 46.08H32.64V48H34.56V46.08Z" fill="black"/>
<path d="M36.48 46.08H34.56V48H36.48V46.08Z" fill="black"/>
<path d="M38.4 46.08H36.48V48H38.4V46.08Z" fill="black"/>
<path d="M42.24 46.08H40.32V48H42.24V46.08Z" fill="black"/>
<path d="M44.16 46.08H42.24V48H44.16V46.08Z" fill="black"/>
<path d="M46.08 46.08H44.16V48H46.08V46.08Z" fill="black"/>
<path d="M48 46.08H46.08V48H48V46.08Z" fill="black"/>
</svg>
