<svg width="49" height="49" viewBox="0 0 49 49" fill="none" xmlns="http://www.w3.org/2000/svg">
<path d="M48.1994 44.3519L38.9678 35.1186C41.9494 31.3127 43.5633 26.6139 43.5496 21.779C43.5496 17.4715 42.2725 13.2607 39.8799 9.67922C37.4873 6.09769 34.0865 3.30623 30.1077 1.65783C26.1288 0.00943651 21.7507 -0.421859 17.5268 0.418486C13.3029 1.25883 9.42296 3.33307 6.3777 6.37891C3.33244 9.42476 1.25859 13.3054 0.418407 17.5301C-0.421779 21.7548 0.00943472 26.1338 1.65752 30.1134C3.3056 34.093 6.09653 37.4944 9.67738 39.8875C13.2582 42.2806 17.4682 43.5579 21.7748 43.5579C26.6089 43.5716 31.3068 41.9573 35.1119 38.9752L44.3435 48.2086C44.8571 48.7157 45.5498 49 46.2715 49C46.9932 49 47.6858 48.7157 48.1994 48.2086C48.4532 47.9557 48.6545 47.6552 48.7919 47.3243C48.9293 46.9933 49 46.6386 49 46.2803C49 45.922 48.9293 45.5672 48.7919 45.2363C48.6545 44.9054 48.4532 44.6048 48.1994 44.3519ZM5.44371 21.779C5.44371 18.5484 6.40151 15.3903 8.196 12.7042C9.99048 10.018 12.5411 7.92441 15.5252 6.68811C18.5093 5.45182 21.7929 5.12834 24.9609 5.7586C28.1288 6.38886 31.0387 7.94454 33.3226 10.2289C35.6066 12.5133 37.162 15.4238 37.7921 18.5923C38.4223 21.7608 38.0988 25.0451 36.8628 28.0298C35.6267 31.0145 33.5335 33.5655 30.8479 35.3604C28.1623 37.1552 25.0048 38.1132 21.7748 38.1132C17.4454 38.1072 13.295 36.3843 10.2336 33.3224C7.17223 30.2604 5.44971 26.1092 5.44371 21.779Z" fill="white"/>
</svg>
