<svg width="943" height="1397" viewBox="0 0 943 1397" fill="none" xmlns="http://www.w3.org/2000/svg">
<g clip-path="url(#clip0_393_462)">
<path d="M599.456 1249.93C599.456 1249.93 -58.0267 1174.72 245.639 834.841C549.305 494.96 494.815 410.717 342.401 265.446C189.987 120.174 727.789 106.521 727.789 106.521" stroke="#53E1FB" stroke-width="0.25" stroke-miterlimit="10"/>
<path d="M594.359 1242.65C594.359 1242.65 -32.2411 1165.19 259.325 832.635C299.327 787.039 332.64 745.926 360.184 708.908C532.947 476.723 476.624 398.173 350.089 275.425C203.404 132.525 721.484 116.764 723.914 114.889" stroke="#53E1FB" stroke-width="0.25" stroke-miterlimit="10"/>
<path d="M589.25 1235.36C589.25 1235.36 -6.46253 1155.64 273.006 830.443C311.35 785.874 343.041 745.474 369.293 709.257C533.376 482.804 479.34 405.564 357.773 285.418C216.812 144.904 715.164 127.018 720.036 123.272" stroke="#53E1FB" stroke-width="0.25" stroke-miterlimit="10"/>
<path d="M584.152 1228.07C584.152 1228.07 19.3121 1146.1 286.688 828.251C323.372 784.71 353.448 745.039 378.402 709.605C533.786 488.912 481.754 413.416 365.45 295.394C229.856 157.806 708.848 137.258 716.154 131.623" stroke="#53E1FB" stroke-width="0.25" stroke-miterlimit="10"/>
<path d="M579.055 1220.79C579.055 1220.79 45.1015 1136.56 300.369 826.059C335.394 783.546 363.855 744.604 387.512 709.954C534.207 495.068 484.376 420.937 373.134 305.387C243.137 170.352 702.539 147.516 712.275 140.006" stroke="#53E1FB" stroke-width="0.25" stroke-miterlimit="10"/>
<path d="M573.957 1213.5C573.957 1213.5 70.8872 1127.02 314.062 823.871C347.427 782.384 374.259 744.184 396.632 710.306C534.612 501.282 487.005 428.476 380.83 315.383C256.433 182.887 696.23 157.773 708.408 148.391" stroke="#53E1FB" stroke-width="0.25" stroke-miterlimit="10"/>
<path d="M568.859 1206.22C568.859 1206.22 96.6768 1117.48 327.743 821.679C359.45 781.22 384.658 743.778 405.741 710.655C535.012 507.557 489.619 435.98 388.506 325.359C269.714 195.388 689.914 168.014 704.522 156.757" stroke="#53E1FB" stroke-width="0.25" stroke-miterlimit="10"/>
<path d="M563.751 1198.93C563.751 1198.93 122.44 1107.94 341.425 819.487C371.472 780.056 395.047 743.369 414.85 711.003C535.412 513.878 492.24 443.501 396.191 335.352C282.999 207.92 683.605 178.271 700.637 165.122" stroke="#53E1FB" stroke-width="0.25" stroke-miterlimit="10"/>
<path d="M558.653 1191.64C558.653 1191.64 148.23 1098.39 355.106 817.295C383.505 778.895 405.439 742.993 423.959 711.352C535.81 520.292 494.87 450.993 403.864 345.343C296.27 220.418 677.274 188.523 696.747 173.502" stroke="#53E1FB" stroke-width="0.25" stroke-miterlimit="10"/>
<path d="M553.555 1184.36C553.555 1184.36 174.015 1088.86 368.788 815.103C395.528 777.731 415.82 742.613 433.068 711.701C536.223 526.788 497.488 458.482 411.552 355.322C309.566 232.907 670.969 198.766 692.873 181.87" stroke="#53E1FB" stroke-width="0.25" stroke-miterlimit="10"/>
<path d="M548.458 1177.07C548.458 1177.07 199.794 1079.31 382.48 812.915C407.561 776.569 426.219 742.253 442.189 712.052C536.656 533.381 500.132 465.962 419.247 365.318C322.862 245.396 664.671 209.026 689.005 190.256" stroke="#53E1FB" stroke-width="0.25" stroke-miterlimit="10"/>
<path d="M543.36 1169.78C543.36 1169.78 225.579 1069.77 396.162 810.723C419.583 775.405 436.599 741.92 451.294 712.416C537.096 540.085 502.754 473.437 426.916 375.323C336.148 257.882 658.336 219.293 685.115 198.636" stroke="#53E1FB" stroke-width="0.25" stroke-miterlimit="10"/>
<path d="M538.251 1162.5C538.251 1162.5 250.96 1059.85 409.844 808.531C431.547 774.194 446.975 741.601 460.403 712.764C537.578 546.893 505.391 480.9 434.6 385.316C349.445 270.324 652.028 229.55 681.237 207.018" stroke="#53E1FB" stroke-width="0.25" stroke-miterlimit="10"/>
<path d="M533.154 1155.21C533.154 1155.21 276.713 1050.31 423.525 806.339C443.569 773.03 457.37 741.302 469.501 713.11C538.095 553.835 508.025 488.331 442.277 395.292C362.735 282.749 645.711 239.79 677.351 215.384" stroke="#53E1FB" stroke-width="0.25" stroke-miterlimit="10"/>
<path d="M528.056 1147.92C528.056 1147.92 302.465 1040.77 437.207 804.147C455.591 771.866 467.756 741.033 478.611 713.459C538.692 560.922 510.678 495.737 449.95 405.282C376.028 295.16 639.38 250.042 673.462 223.764" stroke="#53E1FB" stroke-width="0.25" stroke-miterlimit="10"/>
<path d="M522.958 1140.64C522.958 1140.64 328.225 1031.25 450.899 801.958C467.625 770.704 478.161 740.783 487.731 713.811C539.405 568.149 513.345 503.131 457.646 415.278C389.363 307.55 633.083 260.302 669.598 232.135" stroke="#53E1FB" stroke-width="0.25" stroke-miterlimit="10"/>
<path d="M517.861 1133.35C517.861 1133.35 353.985 1021.72 464.581 799.767C479.647 769.54 488.581 740.569 496.84 714.159C540.22 575.527 516.017 510.51 465.334 425.257C402.694 319.909 626.778 270.545 665.724 240.503" stroke="#53E1FB" stroke-width="0.25" stroke-miterlimit="10"/>
<path d="M512.752 1126.06C512.752 1126.06 379.741 1012.21 478.262 797.575C491.654 768.388 499.018 740.375 505.949 714.508C541.199 583.041 518.696 517.861 473.007 435.248C416.033 332.239 620.447 280.797 661.834 248.883" stroke="#53E1FB" stroke-width="0.25" stroke-miterlimit="10"/>
<path d="M507.655 1118.78C507.655 1118.78 405.507 1002.71 491.944 795.383C503.687 767.226 509.485 740.204 515.058 714.857C542.369 590.685 521.408 525.174 480.691 445.241C429.402 344.546 614.138 291.054 657.959 257.251" stroke="#53E1FB" stroke-width="0.25" stroke-miterlimit="10"/>
<path d="M502.557 1111.49C502.557 1111.49 431.296 993.205 505.625 793.191C515.706 766.077 519.996 740.045 524.168 715.206C543.773 598.422 524.14 532.461 488.379 455.22C442.798 356.798 607.833 301.297 654.085 265.62" stroke="#53E1FB" stroke-width="0.25" stroke-miterlimit="10"/>
<path d="M497.459 1104.21C497.459 1104.21 457.096 983.707 519.318 791.002C527.739 764.915 530.584 739.907 533.288 715.557C545.465 606.19 526.901 539.725 496.063 465.213C456.238 369.015 601.513 311.552 650.206 274.003" stroke="#53E1FB" stroke-width="0.25" stroke-miterlimit="10"/>
<path d="M492.351 1096.92C492.351 1096.92 482.892 974.223 532.988 788.807C539.761 763.751 541.213 739.748 542.382 715.917C547.42 613.904 529.693 546.965 503.732 475.218C469.715 381.227 595.189 321.821 646.313 282.397" stroke="#53E1FB" stroke-width="0.25" stroke-miterlimit="10"/>
<path d="M487.253 1089.63C487.253 1089.63 508.725 964.734 546.681 786.619C551.802 762.607 551.946 739.556 551.502 716.269C549.712 621.461 532.554 554.164 511.416 485.211C483.27 393.367 588.88 332.078 642.438 290.765" stroke="#53E1FB" stroke-width="0.25" stroke-miterlimit="10"/>
<path d="M482.155 1082.35C482.155 1082.35 534.581 955.251 560.362 784.427C563.835 761.446 562.764 739.309 560.612 716.618C552.278 628.75 535.468 561.345 519.104 495.19C496.915 405.484 582.575 342.322 638.564 299.133" stroke="#53E1FB" stroke-width="0.25" stroke-miterlimit="10"/>
<path d="M477.058 1075.06C477.058 1075.06 560.466 945.745 574.044 782.235C575.868 760.285 573.673 738.946 569.721 716.967C555.077 635.606 538.445 568.511 526.788 505.183C510.659 417.582 576.255 352.576 634.685 307.516" stroke="#53E1FB" stroke-width="0.25" stroke-miterlimit="10"/>
<path d="M471.96 1067.78C471.96 1067.78 586.528 936.193 587.737 780.046C587.935 759.132 584.675 738.454 578.841 717.318C558.028 641.944 541.521 575.705 534.473 515.176C524.529 429.697 569.946 362.834 630.807 315.899" stroke="#53E1FB" stroke-width="0.25" stroke-miterlimit="10"/>
<path d="M466.851 1060.49C466.851 1060.49 653.78 888.491 587.939 717.664C522.098 546.837 519.73 406.949 626.921 324.264" stroke="#53E1FB" stroke-width="0.25" stroke-miterlimit="10"/>
<path d="M454.582 1049.06C456.02 1046.57 635.837 880.058 574.101 713.817C512.366 547.576 509.511 411.138 611.776 328.916" stroke="#53E1FB" stroke-width="0.25" stroke-miterlimit="10"/>
<path d="M442.313 1037.64C445.185 1032.66 617.917 871.583 560.253 709.967C501.598 545.559 499.278 415.338 596.62 333.564" stroke="#53E1FB" stroke-width="0.25" stroke-miterlimit="10"/>
<path d="M430.048 1026.2C434.347 1018.72 600.011 863.051 546.419 706.105C491.361 544.83 489.074 419.516 581.494 338.189" stroke="#53E1FB" stroke-width="0.25" stroke-miterlimit="10"/>
<path d="M417.779 1014.78C423.516 1004.8 582.125 854.492 532.581 702.258C481.094 544.078 478.852 423.719 566.349 342.84" stroke="#53E1FB" stroke-width="0.25" stroke-miterlimit="10"/>
<path d="M405.51 1003.36C412.685 990.883 564.265 845.879 518.733 698.407C470.835 543.251 468.633 427.908 551.193 347.488" stroke="#53E1FB" stroke-width="0.25" stroke-miterlimit="10"/>
<path d="M393.241 991.934C401.85 976.977 546.443 837.214 504.895 694.56C460.577 542.378 458.414 432.097 536.06 352.142" stroke="#53E1FB" stroke-width="0.25" stroke-miterlimit="10"/>
<path d="M380.976 980.496C391.023 963.042 528.655 828.465 491.05 690.696C450.317 541.426 448.196 436.286 520.908 356.776" stroke="#53E1FB" stroke-width="0.25" stroke-miterlimit="10"/>
<path d="M368.707 969.073C380.181 949.119 510.901 819.679 477.212 686.848C440.064 540.399 437.977 440.475 505.763 361.427" stroke="#53E1FB" stroke-width="0.25" stroke-miterlimit="10"/>
<path d="M356.438 957.65C369.35 935.199 493.218 810.803 463.375 683.001C429.828 539.314 427.766 444.681 490.629 366.081" stroke="#53E1FB" stroke-width="0.25" stroke-miterlimit="10"/>
<path d="M344.158 946.223C358.504 921.29 475.565 801.858 449.515 679.148C419.585 538.12 417.525 448.864 475.462 370.726" stroke="#53E1FB" stroke-width="0.25" stroke-miterlimit="10"/>
<path d="M331.893 934.786C347.677 907.355 457.995 792.826 435.681 675.286C409.391 536.829 407.318 453.056 460.332 375.366" stroke="#53E1FB" stroke-width="0.25" stroke-miterlimit="10"/>
<path d="M319.624 923.362C336.846 893.435 440.507 783.708 421.833 671.436C399.221 535.453 397.088 457.242 445.176 380.014" stroke="#53E1FB" stroke-width="0.25" stroke-miterlimit="10"/>
<path d="M307.355 911.939C326.004 879.512 423.112 774.507 407.995 667.589C389.1 533.98 386.88 461.434 430.031 384.665" stroke="#53E1FB" stroke-width="0.25" stroke-miterlimit="10"/>
<path d="M295.09 900.501C315.173 865.591 405.83 765.196 394.161 663.727C379.051 532.372 376.662 465.623 414.901 389.305" stroke="#53E1FB" stroke-width="0.25" stroke-miterlimit="10"/>
<path d="M282.821 889.078C304.342 851.671 388.662 755.807 380.313 659.877C369.069 530.643 366.443 469.812 399.749 393.938" stroke="#53E1FB" stroke-width="0.25" stroke-miterlimit="10"/>
<path d="M270.552 877.655C293.511 837.75 371.637 746.333 366.475 656.029C359.2 528.805 356.221 474.016 384.605 398.589" stroke="#53E1FB" stroke-width="0.25" stroke-miterlimit="10"/>
<path d="M258.283 866.232C282.679 823.83 354.756 736.758 352.626 652.179C349.469 526.848 346.002 478.205 369.46 403.241" stroke="#53E1FB" stroke-width="0.25" stroke-miterlimit="10"/>
<path d="M246.018 854.794C271.837 809.907 338.065 727.094 338.792 648.317C339.935 524.774 335.783 482.393 354.319 407.877" stroke="#53E1FB" stroke-width="0.25" stroke-miterlimit="10"/>
<path d="M233.749 843.371C261.006 795.986 321.551 717.385 324.955 644.47C330.646 522.626 325.576 486.586 339.185 412.531" stroke="#53E1FB" stroke-width="0.25" stroke-miterlimit="10"/>
<path d="M221.469 831.944C250.164 782.063 305.223 707.648 311.095 640.617C321.645 520.415 315.331 490.783 324.018 417.177" stroke="#53E1FB" stroke-width="0.25" stroke-miterlimit="10"/>
<path d="M209.204 820.507C239.337 768.128 289.109 697.906 297.261 636.755C313.058 518.207 305.128 494.96 308.877 421.813" stroke="#53E1FB" stroke-width="0.25" stroke-miterlimit="10"/>
<path d="M196.935 809.083C228.502 754.222 273.196 688.249 283.413 632.905C304.974 516.15 294.898 499.146 293.732 426.464" stroke="#53E1FB" stroke-width="0.25" stroke-miterlimit="10"/>
<path d="M184.666 797.66C217.66 740.299 257.485 678.724 269.575 629.058C297.503 514.365 284.687 503.353 278.587 431.115" stroke="#53E1FB" stroke-width="0.25" stroke-miterlimit="10"/>
<path d="M172.397 786.237C206.829 726.379 241.907 669.452 255.737 625.211C290.775 513.12 274.468 507.542 263.442 435.767" stroke="#53E1FB" stroke-width="0.25" stroke-miterlimit="10"/>
<path d="M160.132 774.799C196.002 712.444 226.414 660.527 241.892 621.346C284.815 512.716 264.249 511.731 248.302 440.403" stroke="#53E1FB" stroke-width="0.25" stroke-miterlimit="10"/>
<path d="M147.863 763.376C297.1 503.951 260.985 539.541 233.157 445.054" stroke="#53E1FB" stroke-width="0.25" stroke-miterlimit="10"/>
<path d="M156.982 772.514C301.678 516.971 270.519 549.162 243.298 452.498" stroke="#53E1FB" stroke-width="0.25" stroke-miterlimit="10"/>
<path d="M166.102 781.653C306.261 529.977 280.058 558.769 253.436 459.957" stroke="#53E1FB" stroke-width="0.25" stroke-miterlimit="10"/>
<path d="M175.233 790.794C310.865 542.988 289.603 568.393 263.588 467.404" stroke="#53E1FB" stroke-width="0.25" stroke-miterlimit="10"/>
<path d="M184.353 799.932C315.443 556.008 299.138 578.014 273.726 474.862" stroke="#53E1FB" stroke-width="0.25" stroke-miterlimit="10"/>
<path d="M193.473 809.07C320.037 569.016 308.676 587.621 283.868 482.306" stroke="#53E1FB" stroke-width="0.25" stroke-miterlimit="10"/>
<path d="M202.592 818.208C324.615 582.036 318.211 597.242 294.005 489.764" stroke="#53E1FB" stroke-width="0.25" stroke-miterlimit="10"/>
<path d="M211.712 827.347C329.198 595.041 327.749 606.849 304.143 497.223" stroke="#53E1FB" stroke-width="0.25" stroke-miterlimit="10"/>
<path d="M220.843 836.488C333.802 608.053 337.294 616.473 314.295 504.67" stroke="#53E1FB" stroke-width="0.25" stroke-miterlimit="10"/>
<path d="M229.963 845.626C338.38 621.072 346.829 626.095 324.433 512.128" stroke="#53E1FB" stroke-width="0.25" stroke-miterlimit="10"/>
<path d="M239.082 854.764C342.974 634.081 356.367 635.701 334.575 519.572" stroke="#53E1FB" stroke-width="0.25" stroke-miterlimit="10"/>
<path d="M248.202 863.902C347.556 647.086 365.902 645.322 344.712 527.03" stroke="#53E1FB" stroke-width="0.25" stroke-miterlimit="10"/>
<path d="M257.333 873.044C352.146 660.109 375.447 654.947 354.865 534.477" stroke="#53E1FB" stroke-width="0.25" stroke-miterlimit="10"/>
<path d="M266.453 882.182C356.739 673.117 384.996 664.557 365.003 541.936" stroke="#53E1FB" stroke-width="0.25" stroke-miterlimit="10"/>
<path d="M275.573 891.32C361.321 686.122 394.531 674.178 375.144 549.379" stroke="#53E1FB" stroke-width="0.25" stroke-miterlimit="10"/>
<path d="M284.692 900.458C365.9 699.142 404.065 683.799 385.282 556.838" stroke="#53E1FB" stroke-width="0.25" stroke-miterlimit="10"/>
<path d="M293.819 909.614C370.5 712.168 413.611 693.423 395.427 564.314" stroke="#53E1FB" stroke-width="0.25" stroke-miterlimit="10"/>
<path d="M302.939 918.752C375.083 725.173 423.145 703.045 405.568 571.757" stroke="#53E1FB" stroke-width="0.25" stroke-miterlimit="10"/>
<path d="M312.059 927.89C379.672 738.196 432.684 712.651 415.706 579.216" stroke="#53E1FB" stroke-width="0.25" stroke-miterlimit="10"/>
<path d="M321.179 937.029C384.254 751.202 442.218 722.273 425.847 586.66" stroke="#53E1FB" stroke-width="0.25" stroke-miterlimit="10"/>
<path d="M330.309 946.17C388.848 764.21 451.764 731.897 435.996 594.121" stroke="#53E1FB" stroke-width="0.25" stroke-miterlimit="10"/>
<path d="M339.429 955.308C393.437 777.233 461.302 741.504 446.138 601.565" stroke="#53E1FB" stroke-width="0.25" stroke-miterlimit="10"/>
<path d="M348.549 964.446C398.019 790.238 470.836 751.125 456.275 609.023" stroke="#53E1FB" stroke-width="0.25" stroke-miterlimit="10"/>
<path d="M357.669 973.585C402.602 803.243 480.371 760.746 466.413 616.482" stroke="#53E1FB" stroke-width="0.25" stroke-miterlimit="10"/>
<path d="M366.788 982.723C407.191 816.266 489.909 770.353 476.554 623.926" stroke="#53E1FB" stroke-width="0.25" stroke-miterlimit="10"/>
<path d="M375.919 991.864C411.785 829.274 499.455 779.977 486.703 631.387" stroke="#53E1FB" stroke-width="0.25" stroke-miterlimit="10"/>
<path d="M385.039 1001C416.378 842.283 508.993 789.584 496.845 638.831" stroke="#53E1FB" stroke-width="0.25" stroke-miterlimit="10"/>
<path d="M399.911 978.209C430.04 825.596 519.557 763.668 498.835 623.852" stroke="#53E1FB" stroke-width="0.25" stroke-miterlimit="10"/>
<path d="M414.784 955.416C443.702 808.91 530.12 737.752 500.826 608.873" stroke="#53E1FB" stroke-width="0.25" stroke-miterlimit="10"/>
<path d="M429.671 932.611C457.39 792.214 540.699 711.825 502.828 593.897" stroke="#53E1FB" stroke-width="0.25" stroke-miterlimit="10"/>
<path d="M444.544 909.817C471.056 775.514 551.263 685.909 504.819 578.919" stroke="#53E1FB" stroke-width="0.25" stroke-miterlimit="10"/>
<path d="M459.416 887.024C484.729 758.83 561.837 659.996 506.81 563.94" stroke="#53E1FB" stroke-width="0.25" stroke-miterlimit="10"/>
<path d="M474.289 864.231C498.391 742.143 572.401 634.08 508.801 548.961" stroke="#53E1FB" stroke-width="0.25" stroke-miterlimit="10"/>
<path d="M489.172 841.44C512.064 725.46 582.976 608.167 510.803 533.985" stroke="#53E1FB" stroke-width="0.25" stroke-miterlimit="10"/>
<path d="M504.044 818.647C525.74 708.762 593.54 582.251 512.794 519.007" stroke="#53E1FB" stroke-width="0.25" stroke-miterlimit="10"/>
<path d="M518.917 795.854C539.402 692.075 604.103 556.335 514.784 504.028" stroke="#53E1FB" stroke-width="0.25" stroke-miterlimit="10"/>
<path d="M533.8 773.063C553.086 675.395 614.678 530.422 516.786 489.052" stroke="#53E1FB" stroke-width="0.25" stroke-miterlimit="10"/>
<path d="M548.677 750.256C566.752 658.694 625.245 504.492 518.781 474.059" stroke="#53E1FB" stroke-width="0.25" stroke-miterlimit="10"/>
<path d="M563.549 727.462C580.418 641.993 635.82 478.579 520.761 459.077" stroke="#53E1FB" stroke-width="0.25" stroke-miterlimit="10"/>
<path d="M578.421 704.669C594.091 625.309 646.384 452.663 522.752 444.098" stroke="#53E1FB" stroke-width="0.25" stroke-miterlimit="10"/>
<path d="M593.305 681.879C607.764 608.626 656.959 426.75 524.75 429.137" stroke="#53E1FB" stroke-width="0.25" stroke-miterlimit="10"/>
<path d="M608.177 659.085C621.437 591.942 667.522 400.834 526.741 414.158" stroke="#53E1FB" stroke-width="0.25" stroke-miterlimit="10"/>
<path d="M623.05 636.292C635.103 575.241 678.086 374.918 528.732 399.179" stroke="#53E1FB" stroke-width="0.25" stroke-miterlimit="10"/>
<path d="M637.922 613.499C648.765 558.555 688.65 349.002 530.723 384.2" stroke="#53E1FB" stroke-width="0.25" stroke-miterlimit="10"/>
<path d="M652.809 590.694C662.452 541.86 699.232 323.061 532.728 369.21" stroke="#53E1FB" stroke-width="0.25" stroke-miterlimit="10"/>
<path d="M667.682 567.901C676.114 525.173 709.807 297.147 534.719 354.231" stroke="#53E1FB" stroke-width="0.25" stroke-miterlimit="10"/>
<path d="M682.554 545.107C689.791 508.475 720.371 271.232 536.71 339.253" stroke="#53E1FB" stroke-width="0.25" stroke-miterlimit="10"/>
<path d="M697.427 522.314C703.453 491.789 730.934 245.316 538.701 324.274" stroke="#53E1FB" stroke-width="0.25" stroke-miterlimit="10"/>
<path d="M712.31 499.524C717.126 475.105 741.509 219.403 540.703 309.298" stroke="#53E1FB" stroke-width="0.25" stroke-miterlimit="10"/>
<path d="M727.183 476.73C730.799 458.422 752.073 193.487 542.683 294.316" stroke="#53E1FB" stroke-width="0.25" stroke-miterlimit="10"/>
<path d="M742.055 453.937C744.465 441.72 762.636 167.571 544.669 279.352" stroke="#53E1FB" stroke-width="0.25" stroke-miterlimit="10"/>
<path d="M756.931 431.129C758.142 425.023 773.204 141.64 546.664 264.359" stroke="#53E1FB" stroke-width="0.25" stroke-miterlimit="10"/>
<path d="M771.815 408.339C771.815 408.339 783.79 115.73 548.666 249.383" stroke="#53E1FB" stroke-width="0.25" stroke-miterlimit="10"/>
<path d="M754.033 432.367C754.033 432.367 759.233 341.09 724.678 280.583C696.684 231.567 632.765 212.797 531.391 273.066" stroke="#51DCFA" stroke-width="0.25" stroke-miterlimit="10"/>
<path d="M736.24 456.393C736.24 456.393 742.968 364.006 710.81 300.423C684.436 248.276 612.281 235.652 514.1 296.761" stroke="#4FD7F9" stroke-width="0.25" stroke-miterlimit="10"/>
<path d="M718.458 480.421C718.458 480.421 726.74 386.87 696.957 320.25C672.225 264.933 591.823 258.498 496.813 320.442" stroke="#4DD1F8" stroke-width="0.25" stroke-miterlimit="10"/>
<path d="M700.68 504.435C700.68 504.435 710.531 409.662 683.093 340.075C660.014 281.543 571.354 281.341 479.523 344.137" stroke="#4BCCF7" stroke-width="0.25" stroke-miterlimit="10"/>
<path d="M682.898 528.463C682.898 528.463 694.364 432.434 669.24 359.903C647.845 298.134 550.881 304.199 462.247 367.821" stroke="#48C7F6" stroke-width="0.25" stroke-miterlimit="10"/>
<path d="M665.116 552.491C665.116 552.491 678.222 455.15 655.383 379.745C635.683 314.695 530.419 327.06 444.968 391.519" stroke="#46C2F5" stroke-width="0.25" stroke-miterlimit="10"/>
<path d="M647.334 576.52C647.334 576.52 662.111 477.844 641.53 399.572C623.555 331.219 509.95 349.904 427.681 415.199" stroke="#44BDF4" stroke-width="0.25" stroke-miterlimit="10"/>
<path d="M629.556 600.533C629.556 600.533 646.033 500.501 627.681 419.386C611.461 347.706 489.496 372.736 410.41 438.869" stroke="#42B7F3" stroke-width="0.25" stroke-miterlimit="10"/>
<path d="M611.774 624.562C611.774 624.562 629.982 523.148 613.813 439.224C599.366 364.193 469.013 395.59 393.119 462.563" stroke="#40B2F2" stroke-width="0.25" stroke-miterlimit="10"/>
<path d="M593.992 648.59C593.992 648.59 613.956 545.787 599.96 459.052C587.309 380.674 448.551 418.451 375.84 486.261" stroke="#3EADF1" stroke-width="0.25" stroke-miterlimit="10"/>
<path d="M576.199 672.615C576.199 672.615 597.945 568.415 586.092 478.891C575.274 397.161 428.067 441.306 358.538 509.954" stroke="#3CA8F0" stroke-width="0.25" stroke-miterlimit="10"/>
<path d="M558.421 696.629C558.421 696.629 581.975 591.023 572.243 498.705C563.261 413.607 407.613 464.138 341.266 533.623" stroke="#3AA3EF" stroke-width="0.25" stroke-miterlimit="10"/>
<path d="M540.639 720.657C540.639 720.657 566.023 613.651 558.386 518.547C551.278 430.077 387.151 486.999 323.987 557.321" stroke="#389EEF" stroke-width="0.25" stroke-miterlimit="10"/>
<path d="M522.857 744.686C522.857 744.686 550.086 636.267 544.522 538.371C539.298 446.533 366.671 509.839 306.7 581.001" stroke="#3598EE" stroke-width="0.25" stroke-miterlimit="10"/>
<path d="M505.075 768.714C505.075 768.714 534.167 658.904 530.665 558.213C527.348 463.012 346.206 532.715 289.41 604.696" stroke="#3393ED" stroke-width="0.25" stroke-miterlimit="10"/>
<path d="M487.297 792.728C487.297 792.728 518.278 681.518 516.816 578.027C515.427 479.467 325.74 555.543 272.134 628.38" stroke="#318EEC" stroke-width="0.25" stroke-miterlimit="10"/>
<path d="M469.515 816.756C469.515 816.756 502.396 704.15 502.959 597.869C503.499 495.952 305.279 578.404 254.855 652.078" stroke="#2F89EB" stroke-width="0.25" stroke-miterlimit="10"/>
<path d="M451.733 840.784C451.733 840.784 486.522 726.798 489.106 617.696C491.597 512.428 284.81 601.248 237.579 675.761" stroke="#2D84EA" stroke-width="0.25" stroke-miterlimit="10"/>
<path d="M433.94 864.81C433.94 864.81 470.636 749.444 475.227 637.533C479.818 525.621 264.326 624.103 220.277 699.454" stroke="#2B7EE9" stroke-width="0.25" stroke-miterlimit="10"/>
<path d="M416.162 888.823C416.162 888.823 454.787 772.084 461.378 657.346C467.804 545.383 243.868 646.949 202.995 723.12" stroke="#2979E8" stroke-width="0.25" stroke-miterlimit="10"/>
<path d="M398.38 912.852C398.38 912.852 438.942 794.756 447.525 677.173C455.93 561.883 223.399 669.792 185.719 746.803" stroke="#2774E7" stroke-width="0.25" stroke-miterlimit="10"/>
<path d="M380.598 936.88C380.598 936.88 423.108 817.431 433.668 697.015C444.065 578.4 202.937 692.653 168.436 770.516" stroke="#246FE6" stroke-width="0.25" stroke-miterlimit="10"/>
<path d="M362.82 960.894C362.82 960.894 407.277 840.092 419.819 716.829C432.218 594.891 182.472 715.482 151.164 794.185" stroke="#226AE5" stroke-width="0.25" stroke-miterlimit="10"/>
<path d="M345.038 984.922C345.038 984.922 391.45 862.784 405.951 736.668C420.359 611.425 161.999 738.34 133.863 817.877" stroke="#2064E4" stroke-width="0.25" stroke-miterlimit="10"/>
<path d="M327.256 1008.95C327.256 1008.95 375.8 885.478 392.098 756.495C408.681 627.946 141.527 761.198 116.587 841.56" stroke="#1E5FE3" stroke-width="0.25" stroke-miterlimit="10"/>
<path d="M309.474 1032.98C309.474 1032.98 359.803 908.187 378.241 776.338C396.678 644.488 121.065 784.059 99.3075 865.259" stroke="#1C5AE2" stroke-width="0.25" stroke-miterlimit="10"/>
<path d="M325.28 1016.32C325.28 1016.32 367.632 885.412 379.071 764.101C390.51 642.789 130.541 763.306 112.359 841.048" stroke="#1C5AE2" stroke-width="0.25" stroke-miterlimit="10"/>
<path d="M341.086 999.67C341.086 999.67 375.451 862.635 379.887 751.875C384.326 641.101 140.013 742.568 125.39 816.831" stroke="#1C5AE2" stroke-width="0.25" stroke-miterlimit="10"/>
<path d="M356.892 983.015C356.892 983.015 383.265 839.872 380.717 739.638C378.169 639.404 149.489 721.816 138.442 792.62" stroke="#1C5AE2" stroke-width="0.25" stroke-miterlimit="10"/>
<path d="M372.698 966.361C372.698 966.361 391.083 817.095 381.532 727.413C371.981 637.731 158.946 701.089 151.483 768.406" stroke="#1C5AE2" stroke-width="0.25" stroke-miterlimit="10"/>
<path d="M388.505 949.707C388.505 949.707 398.902 794.318 382.363 715.176C365.813 636.032 168.433 680.339 164.524 744.192" stroke="#1C5AE2" stroke-width="0.25" stroke-miterlimit="10"/>
<path d="M404.311 933.052C404.311 933.052 406.716 771.554 383.182 702.936C359.644 634.332 177.897 659.584 177.569 719.964" stroke="#1C5AE2" stroke-width="0.25" stroke-miterlimit="10"/>
<path d="M420.117 916.398C420.117 916.398 414.534 748.777 384.008 690.714C353.471 632.647 187.369 638.846 190.621 695.753" stroke="#1C5AE2" stroke-width="0.25" stroke-miterlimit="10"/>
<path d="M435.934 899.747C435.934 899.747 422.371 726.02 384.839 678.477C347.303 630.948 196.856 618.096 203.662 671.539" stroke="#1C5AE2" stroke-width="0.25" stroke-miterlimit="10"/>
<path d="M451.74 883.092C451.74 883.092 430.189 703.243 385.665 666.254C341.141 629.266 206.325 597.373 216.714 647.329" stroke="#1C5AE2" stroke-width="0.25" stroke-miterlimit="10"/>
<path d="M467.546 866.438C467.546 866.438 438.008 680.466 386.485 654.015C334.961 627.564 215.789 576.617 229.755 623.115" stroke="#1C5AE2" stroke-width="0.25" stroke-miterlimit="10"/>
<path d="M483.352 849.783C483.352 849.783 445.822 657.703 387.311 641.792C328.8 625.882 225.273 555.882 242.797 598.901" stroke="#1C5AE2" stroke-width="0.25" stroke-miterlimit="10"/>
<path d="M499.159 833.129C499.159 833.129 453.64 634.925 388.13 629.552C322.62 624.179 234.737 535.127 255.838 574.687" stroke="#1C5AE2" stroke-width="0.25" stroke-miterlimit="10"/>
<path d="M514.965 816.475C514.965 816.475 461.459 612.148 388.957 617.33C316.455 622.512 244.209 514.388 268.89 550.476" stroke="#1C5AE2" stroke-width="0.25" stroke-miterlimit="10"/>
<path d="M530.771 799.821C530.771 799.821 469.273 589.385 389.776 605.09C310.279 620.795 253.681 493.65 281.92 526.26" stroke="#1C5AE2" stroke-width="0.25" stroke-miterlimit="10"/>
<path d="M546.573 783.18C546.573 783.18 477.099 566.625 390.599 592.882C304.103 619.124 263.149 472.927 294.968 502.063" stroke="#1C5AE2" stroke-width="0.25" stroke-miterlimit="10"/>
<path d="M562.39 766.529C562.39 766.529 484.928 543.851 391.429 580.645C297.93 617.44 272.625 452.174 308.02 477.852" stroke="#1C5AE2" stroke-width="0.25" stroke-miterlimit="10"/>
<path d="M578.196 749.875C578.196 749.875 492.742 521.088 392.259 568.408C291.772 615.743 282.112 431.425 321.076 453.627" stroke="#1C5AE2" stroke-width="0.25" stroke-miterlimit="10"/>
<path d="M594.002 733.22C594.002 733.22 500.561 498.311 393.075 556.183C285.589 614.055 291.573 410.684 334.102 429.425" stroke="#1C5AE2" stroke-width="0.25" stroke-miterlimit="10"/>
<path d="M609.809 716.566C609.809 716.566 508.375 475.547 393.905 543.946C279.42 612.356 301.045 389.945 347.158 405.199" stroke="#1C5AE2" stroke-width="0.25" stroke-miterlimit="10"/>
<path d="M625.615 699.912C625.615 699.912 516.194 452.77 394.721 531.721C273.248 610.671 310.517 369.207 360.2 380.985" stroke="#1C5AE2" stroke-width="0.25" stroke-miterlimit="10"/>
<path d="M641.421 683.257C641.421 683.257 524.023 429.996 395.551 519.484C267.079 608.972 319.993 348.455 373.241 356.772" stroke="#1C5AE2" stroke-width="0.25" stroke-miterlimit="10"/>
<path d="M657.227 666.603C657.227 666.603 531.837 407.233 396.366 507.258C260.907 607.287 329.454 327.714 386.282 332.558" stroke="#1C5AE2" stroke-width="0.25" stroke-miterlimit="10"/>
<path d="M673.033 649.949C673.033 649.949 539.656 384.456 397.197 495.022C254.738 605.588 338.941 306.964 399.334 308.347" stroke="#1C5AE2" stroke-width="0.25" stroke-miterlimit="10"/>
<path d="M688.839 633.294C688.839 633.294 547.474 361.678 398.012 482.796C248.554 603.9 348.402 286.223 412.364 284.13" stroke="#1C5AE2" stroke-width="0.25" stroke-miterlimit="10"/>
<path d="M704.656 616.643C704.656 616.643 555.299 338.918 398.854 470.562C242.408 602.206 357.885 265.488 425.427 259.922" stroke="#1C5AE2" stroke-width="0.25" stroke-miterlimit="10"/>
<path d="M720.463 599.988C720.463 599.988 563.118 316.141 399.673 458.322C236.228 600.504 367.361 244.735 438.472 235.694" stroke="#1C5AE2" stroke-width="0.25" stroke-miterlimit="10"/>
<path d="M709.857 628.884C709.857 628.884 565.158 335.191 404.169 472.048C243.19 608.909 375.88 259.338 447.206 251.439" stroke="#1C5AE2" stroke-width="0.25" stroke-miterlimit="10"/>
<path d="M699.256 657.765C699.256 657.765 567.191 354.223 408.683 485.748C250.175 617.274 384.418 273.915 455.969 267.161" stroke="#1C5AE2" stroke-width="0.25" stroke-miterlimit="10"/>
<path d="M688.655 686.646C688.655 686.646 569.228 373.241 413.187 499.445C257.149 625.635 392.941 288.503 464.721 282.879" stroke="#1C5AE2" stroke-width="0.25" stroke-miterlimit="10"/>
<path d="M678.05 715.542C678.05 715.542 571.268 392.29 417.686 513.157C264.104 634.023 401.475 303.094 473.47 298.613" stroke="#1C5AE2" stroke-width="0.25" stroke-miterlimit="10"/>
<path d="M667.449 744.424C667.449 744.424 573.301 411.323 422.19 526.854C271.078 642.385 410.002 317.668 482.222 314.332" stroke="#1C5AE2" stroke-width="0.25" stroke-miterlimit="10"/>
<path d="M656.844 773.319C656.844 773.319 575.334 430.355 426.689 540.566C278.048 650.761 418.521 332.27 490.97 330.065" stroke="#1C5AE2" stroke-width="0.25" stroke-miterlimit="10"/>
<path d="M646.242 802.2C646.242 802.2 577.367 449.388 431.204 554.266C285.041 659.143 427.07 346.85 499.723 345.784" stroke="#1C5AE2" stroke-width="0.25" stroke-miterlimit="10"/>
<path d="M635.637 831.096C635.637 831.096 579.407 468.437 435.703 567.977C292 667.517 435.593 361.438 508.471 361.517" stroke="#1C5AE2" stroke-width="0.25" stroke-miterlimit="10"/>
<path d="M625.036 859.978C625.036 859.978 581.439 487.47 440.206 581.674C298.973 675.879 444.116 376.026 517.223 377.236" stroke="#1C5AE2" stroke-width="0.25" stroke-miterlimit="10"/>
<path d="M614.435 888.859C614.435 888.859 583.476 506.488 444.71 595.371C305.943 684.255 452.653 390.603 525.972 392.969" stroke="#1C5AE2" stroke-width="0.25" stroke-miterlimit="10"/>
<path d="M603.83 917.754C603.83 917.754 585.516 525.537 449.209 609.083C312.914 692.631 461.176 405.191 534.72 408.703" stroke="#1C5AE2" stroke-width="0.25" stroke-miterlimit="10"/>
<path d="M593.229 946.635C593.229 946.635 587.549 544.57 453.724 622.783C319.887 700.993 469.71 419.782 543.472 424.421" stroke="#1C5AE2" stroke-width="0.25" stroke-miterlimit="10"/>
<path d="M582.623 975.531C582.623 975.531 589.578 563.616 458.223 636.494C326.857 709.369 478.233 434.37 552.221 440.155" stroke="#1C5AE2" stroke-width="0.25" stroke-miterlimit="10"/>
<path d="M572.033 1004.42C572.033 1004.42 591.637 582.64 462.738 650.194C333.839 717.748 486.782 448.95 560.984 455.877" stroke="#1C5AE2" stroke-width="0.25" stroke-miterlimit="10"/>
<path d="M561.428 1033.31C561.428 1033.31 593.666 601.687 467.237 663.906C340.809 726.124 495.305 463.538 569.732 471.61" stroke="#1C5AE2" stroke-width="0.25" stroke-miterlimit="10"/>
<path d="M550.827 1062.19C550.827 1062.19 595.699 620.719 471.741 677.603C347.783 734.486 503.828 478.126 578.485 487.329" stroke="#1C5AE2" stroke-width="0.25" stroke-miterlimit="10"/>
<path d="M540.226 1091.07C540.226 1091.07 597.747 639.74 476.255 691.303C354.764 742.865 512.377 492.705 587.237 503.048" stroke="#1C5AE2" stroke-width="0.25" stroke-miterlimit="10"/>
<path d="M529.621 1119.97C529.621 1119.97 599.776 658.787 480.755 705.014C361.734 751.242 520.9 507.294 595.985 518.781" stroke="#1C5AE2" stroke-width="0.25" stroke-miterlimit="10"/>
<path d="M519.019 1148.85C519.019 1148.85 601.809 677.819 485.258 718.711C368.708 759.604 529.423 521.882 604.738 534.5" stroke="#1C5AE2" stroke-width="0.25" stroke-miterlimit="10"/>
<path d="M508.414 1177.75C508.414 1177.75 603.849 696.869 489.758 732.423C375.667 767.977 537.946 536.47 613.486 550.233" stroke="#1C5AE2" stroke-width="0.25" stroke-miterlimit="10"/>
<path d="M497.813 1206.63C497.813 1206.63 605.886 715.887 494.261 746.12C382.637 776.353 546.484 551.046 622.238 565.952" stroke="#1C5AE2" stroke-width="0.25" stroke-miterlimit="10"/>
<path d="M487.208 1235.52C487.208 1235.52 607.915 734.934 498.761 759.832C389.607 784.729 555.003 565.649 630.976 581.682" stroke="#1C5AE2" stroke-width="0.25" stroke-miterlimit="10"/>
<path d="M476.607 1264.4C476.607 1264.4 609.959 753.969 503.275 773.532C396.592 793.094 563.541 580.226 639.739 597.404" stroke="#1C5AE2" stroke-width="0.25" stroke-miterlimit="10"/>
<path d="M466.006 1293.29C466.006 1293.29 611.996 772.987 507.779 787.229C403.562 801.47 572.079 594.802 648.491 613.123" stroke="#1C5AE2" stroke-width="0.25" stroke-miterlimit="10"/>
<path d="M455.401 1322.18C455.401 1322.18 614.025 792.034 512.278 800.94C410.532 809.847 580.598 609.405 657.24 628.856" stroke="#1C5AE2" stroke-width="0.25" stroke-miterlimit="10"/>
<path d="M444.795 1351.08C444.795 1351.08 616.065 811.084 516.778 814.652C417.491 818.22 589.121 623.993 665.988 644.59" stroke="#1C5AE2" stroke-width="0.25" stroke-miterlimit="10"/>
<path d="M671.724 627.375C597.815 607.571 422.2 798.747 521.96 800.125C577.643 800.897 559.379 952.845 520.17 1097.28C485.902 1223.49 451.565 1341.49 451.565 1341.49" stroke="#1C5AE2" stroke-width="0.25" stroke-miterlimit="10"/>
<path d="M677.46 610.161C606.509 591.15 426.935 779.529 527.127 785.61C585.348 789.138 573.183 938.94 528.983 1084.3C490.041 1212.37 458.319 1331.9 458.319 1331.9" stroke="#1C5AE2" stroke-width="0.25" stroke-miterlimit="10"/>
<path d="M683.197 592.947C615.203 574.728 431.687 760.517 532.297 771.08C593.081 777.449 586.943 925.022 537.804 1071.29C494.15 1201.23 465.085 1322.28 465.085 1322.28" stroke="#1C5AE2" stroke-width="0.25" stroke-miterlimit="10"/>
<path d="M688.929 575.748C623.892 558.321 436.435 741.737 537.464 756.565C600.831 765.873 600.673 911.128 546.616 1058.31C498.214 1190.12 471.828 1312.7 471.828 1312.7" stroke="#1C5AE2" stroke-width="0.25" stroke-miterlimit="10"/>
<path d="M694.665 558.534C632.586 541.9 441.193 723.098 542.646 742.038C608.592 754.347 614.362 897.208 555.444 1045.31C502.26 1179 478.598 1303.11 478.598 1303.11" stroke="#1C5AE2" stroke-width="0.25" stroke-miterlimit="10"/>
<path d="M700.401 541.32C641.28 525.478 445.93 704.624 547.816 727.508C616.341 742.91 628.015 883.292 564.261 1032.32C506.269 1167.87 485.356 1293.51 485.356 1293.51" stroke="#1C5AE2" stroke-width="0.25" stroke-miterlimit="10"/>
<path d="M706.138 524.106C649.974 509.057 450.647 686.27 552.983 712.993C624.081 731.548 641.631 869.383 573.077 1019.32C510.245 1156.74 492.114 1283.92 492.114 1283.92" stroke="#1C5AE2" stroke-width="0.25" stroke-miterlimit="10"/>
<path d="M711.881 506.909C658.675 492.653 455.351 668.051 558.172 698.484C631.831 720.282 655.247 855.473 581.912 1006.35C514.217 1145.63 498.89 1274.34 498.89 1274.34" stroke="#1C5AE2" stroke-width="0.25" stroke-miterlimit="10"/>
<path d="M717.617 489.695C667.358 476.228 460.021 649.916 563.343 683.954C639.537 709.05 668.811 841.535 590.729 993.355C518.149 1134.48 505.649 1264.75 505.649 1264.75" stroke="#1C5AE2" stroke-width="0.25" stroke-miterlimit="10"/>
<path d="M723.353 472.481C676.052 459.807 464.657 631.864 568.514 669.425C647.234 697.894 682.361 827.561 599.549 980.346C522.067 1123.31 512.411 1255.14 512.411 1255.14" stroke="#1C5AE2" stroke-width="0.25" stroke-miterlimit="10"/>
<path d="M729.086 455.281C684.742 443.4 469.265 613.914 573.68 654.909C654.89 686.804 695.885 813.596 608.362 967.365C525.958 1112.14 519.165 1245.56 519.165 1245.56" stroke="#1C5AE2" stroke-width="0.25" stroke-miterlimit="10"/>
<path d="M734.822 438.067C693.436 426.978 473.862 596.007 578.862 640.383C662.545 675.761 709.413 799.617 617.19 954.373C529.854 1100.96 525.934 1235.97 525.934 1235.97" stroke="#1C5AE2" stroke-width="0.25" stroke-miterlimit="10"/>
<path d="M740.558 420.853C702.13 410.557 478.422 578.153 584.029 625.868C670.169 664.787 722.912 785.614 626.014 941.396C529.115 1097.18 532.689 1226.39 532.689 1226.39" stroke="#1C5AE2" stroke-width="0.25" stroke-miterlimit="10"/>
<path d="M746.29 403.654C710.82 394.15 482.944 560.35 589.196 611.352C677.756 653.864 736.4 771.608 634.83 928.401C537.579 1078.53 539.447 1216.79 539.447 1216.79" stroke="#1C5AE2" stroke-width="0.25" stroke-miterlimit="10"/>
<path d="M752.027 386.44C719.514 377.728 487.454 542.59 594.366 596.823C685.325 642.968 749.873 757.568 643.647 915.406C541.431 1067.28 546.209 1207.18 546.209 1207.18" stroke="#1C5AE2" stroke-width="0.25" stroke-miterlimit="10"/>
<path d="M757.763 369.226C728.197 361.304 491.93 524.869 599.548 582.296C692.881 632.115 763.35 743.513 652.475 902.414C545.272 1056.04 552.978 1197.59 552.978 1197.59" stroke="#1C5AE2" stroke-width="0.25" stroke-miterlimit="10"/>
<path d="M763.495 352.026C736.887 344.897 496.384 507.187 604.715 567.781C700.389 621.311 776.817 729.455 661.287 889.434C549.106 1044.78 559.733 1188.01 559.733 1188.01" stroke="#1C5AE2" stroke-width="0.25" stroke-miterlimit="10"/>
<path d="M769.231 334.812C745.581 328.475 500.812 489.514 609.882 553.266C707.886 610.55 790.276 715.379 670.104 876.439C552.921 1033.5 566.491 1178.42 566.491 1178.42" stroke="#1C5AE2" stroke-width="0.25" stroke-miterlimit="10"/>
<path d="M774.968 317.598C754.275 312.053 505.225 471.852 615.064 538.739C715.363 599.815 803.743 701.275 678.932 863.447C556.756 1022.19 573.26 1168.82 573.26 1168.82" stroke="#1C5AE2" stroke-width="0.25" stroke-miterlimit="10"/>
<path d="M780.704 300.384C762.968 295.632 509.605 454.228 620.234 524.209C722.8 589.101 817.199 687.167 687.748 850.452C560.579 1010.88 580.018 1159.23 580.018 1159.23" stroke="#1C5AE2" stroke-width="0.25" stroke-miterlimit="10"/>
<path d="M786.436 283.184C771.659 279.225 513.976 436.633 625.401 509.694C730.225 578.429 830.647 673.043 696.561 837.472C564.38 999.56 586.773 1149.65 586.773 1149.65" stroke="#1C5AE2" stroke-width="0.25" stroke-miterlimit="10"/>
<path d="M792.172 265.97C780.352 262.803 518.315 419.029 630.572 495.164C737.621 567.781 844.089 658.9 705.382 824.462C568.193 988.2 593.535 1140.04 593.535 1140.04" stroke="#1C5AE2" stroke-width="0.25" stroke-miterlimit="10"/>
<path d="M797.908 248.756C789.035 246.379 522.649 401.439 635.75 480.652C745.008 557.162 857.552 644.764 714.206 811.485C572.009 976.871 600.289 1130.46 600.289 1130.46" stroke="#1C5AE2" stroke-width="0.25" stroke-miterlimit="10"/>
<path d="M803.641 231.557C797.725 229.972 526.954 383.873 640.917 466.137C752.355 546.563 870.78 630.317 723.018 798.505C575.604 965.22 607.043 1120.88 607.043 1120.88" stroke="#1C5AE2" stroke-width="0.25" stroke-miterlimit="10"/>
<path d="M809.377 214.343C806.419 213.55 531.248 366.303 646.087 451.607C759.683 535.989 884.331 616.297 731.839 785.495C579.519 953.965 613.805 1111.27 613.805 1111.27" stroke="#1C5AE2" stroke-width="0.25" stroke-miterlimit="10"/>
<path d="M815.113 197.129C815.113 197.129 535.516 348.742 651.269 437.081C767.011 525.416 897.896 602.266 740.667 772.503C583.437 942.741 620.575 1101.68 620.575 1101.68" stroke="#1C5AE2" stroke-width="0.25" stroke-miterlimit="10"/>
</g>
<defs>
<clipPath id="clip0_393_462">
<rect width="633.18" height="1275.59" fill="white" transform="translate(612.458 1396) rotate(-165)"/>
</clipPath>
</defs>
</svg>
