<svg width="41" height="34" viewBox="0 0 41 34" fill="none" xmlns="http://www.w3.org/2000/svg">
<path d="M41 4.03302C39.4922 4.71455 37.8725 5.17504 36.1698 5.38318C37.9267 4.31078 39.2412 2.62293 39.8678 0.634592C38.2172 1.63476 36.4106 2.33877 34.5266 2.71601C33.2597 1.33613 31.5816 0.421524 29.7529 0.114188C27.9243 -0.193148 26.0473 0.123983 24.4134 1.01634C22.7795 1.90871 21.4801 3.32637 20.717 5.04924C19.9538 6.77211 19.7697 8.70379 20.193 10.5444C16.8483 10.3731 13.5763 9.48626 10.5893 7.9415C7.60235 6.39675 4.96717 4.22857 2.8548 1.57768C2.13252 2.84864 1.71721 4.32221 1.71721 5.89157C1.71641 7.30435 2.05746 8.69549 2.71012 9.94156C3.36278 11.1876 4.30686 12.2501 5.4586 13.0347C4.12289 12.9914 2.81665 12.6232 1.6486 11.9608V12.0714C1.64846 14.0528 2.32037 15.9733 3.55032 17.507C4.78026 19.0407 6.49249 20.093 8.39646 20.4855C7.15737 20.8276 5.85827 20.8779 4.59729 20.6328C5.13448 22.3378 6.18087 23.8287 7.58998 24.8968C8.99909 25.965 10.7004 26.5569 12.4557 26.5898C9.47596 28.9759 5.79606 30.2702 2.00793 30.2645C1.3369 30.2647 0.666437 30.2247 0 30.1447C3.84517 32.6667 8.32123 34.0052 12.8926 34C28.3674 34 36.8271 20.9257 36.8271 9.58655C36.8271 9.21816 36.818 8.84608 36.8018 8.47769C38.4473 7.26378 39.8677 5.76059 40.9964 4.03855L41 4.03302Z" fill="white"/>
</svg>
